<svg width="41" height="34" viewBox="0 0 41 34" fill="none" xmlns="http://www.w3.org/2000/svg">
<path d="M20.3046 4.17816C21.8035 2.76281 23.3272 2.20245 25.2575 1.60068C27.7718 0.816024 30.3705 0.333563 32.9989 0.163477C33.6168 0.120176 34.2364 0.120073 34.855 0.090386C35.2659 0.0706801 35.676 0.0159643 36.0868 0.00193988C36.41 -0.00906473 36.795 0.0202126 37.0363 0.26216C37.1577 0.383876 37.2311 0.555753 37.2679 0.721436C37.3374 1.03412 37.3054 1.38094 37.3036 1.70008L37.296 3.06045C37.9984 3.04592 39.1927 2.94503 39.8444 3.18135C40.1418 3.28919 40.3993 3.50452 40.527 3.79796C40.6082 3.98443 40.641 4.18748 40.6492 4.3895C40.6701 4.90764 40.6551 5.43207 40.6551 5.95077L40.6551 8.73862L40.6551 17.3141L40.6562 26.5437C40.6582 28.1096 40.7128 29.6899 40.663 31.2545C40.655 31.5062 40.6398 31.771 40.5421 32.0062C40.3693 32.4218 40.0438 32.6876 39.6365 32.8492C38.8516 33.0238 37.8363 32.9245 37.018 32.9245L28.3302 32.9634L25.5715 32.9664C25.0817 32.9659 24.5726 32.9374 24.0853 32.9769C23.4721 33.0267 23.0031 33.5126 22.451 33.7305C21.9804 33.9162 21.4418 33.9504 20.9408 33.9752C20.1197 34.0159 18.9052 34.049 18.1569 33.7099C17.6683 33.4884 17.2534 33.0077 16.6996 32.9528C16.2521 32.9085 15.7929 32.9197 15.3433 32.9175L13.5888 32.9025L6.57655 32.8911L3.27973 32.8959C2.58142 32.9009 1.82359 32.988 1.13531 32.8527C0.885127 32.8041 0.65362 32.6863 0.467208 32.5125C0.109686 32.1772 0.0163771 31.6969 0.00614022 31.2281C-0.00798661 30.5772 0.00875043 29.9236 0.01003 29.2723L0.0118728 25.5993L0.0111563 13.997L0.00849457 7.38086L0.00772684 5.30401C0.00762447 4.94198 -0.0146406 4.56404 0.0168889 4.20401C0.0406895 3.93283 0.155342 3.62752 0.350661 3.43317C0.824269 2.96187 1.62638 3.03762 2.23787 3.04392L3.36275 3.05723C3.36454 2.61505 3.36213 2.17282 3.35548 1.73063C3.3519 1.42082 3.32559 1.08843 3.37396 0.782038C3.39776 0.631301 3.44121 0.48256 3.5248 0.353422C3.65808 0.147508 3.82228 0.0641289 4.05491 0.00925949C4.55903 -0.022833 5.08116 0.0732398 5.58599 0.0979618C6.17297 0.126676 6.75949 0.137475 7.34514 0.190093C8.07702 0.255916 8.80481 0.37497 9.53224 0.477799C12.1776 0.851802 15.2586 1.38796 17.6969 2.48161C18.6414 2.90521 19.5015 3.53247 20.3046 4.17816ZM5.00008 27.5742C8.67695 27.6948 12.5006 28.1514 15.9759 29.4012C16.7255 29.664 17.4485 29.9975 18.1351 30.3971C18.6111 30.6703 19.8837 31.7607 20.2811 31.7615C20.4345 31.7619 20.5875 31.6841 20.7169 31.6088C20.9161 31.4928 21.0993 31.3325 21.2813 31.1913C21.6876 30.8761 22.1019 30.5431 22.5495 30.2876C23.1773 29.9292 23.8736 29.6695 24.5563 29.4381C27.1104 28.5724 29.9352 28.0501 32.6164 27.806C33.6378 27.713 34.6658 27.715 35.6858 27.6178L35.6812 27.1714L35.6636 1.72045C34.2564 1.72204 32.8503 1.85962 31.455 2.02955C30.4453 2.15255 29.4295 2.276 28.431 2.47173C26.3216 2.88525 23.1108 3.81306 21.5578 5.3752C21.261 5.67366 20.8502 6.28777 20.3939 6.29872C20.088 6.30609 19.819 6.10269 19.6138 5.89473C19.2345 5.51023 18.9054 5.07051 18.4523 4.76535C17.805 4.32951 17.0589 4.03367 16.3332 3.75697C15.1912 3.31253 14.0172 2.95491 12.8213 2.68727C11.47 2.39659 10.0926 2.24248 8.72358 2.06241C8.24199 1.99904 7.77452 1.86412 7.29441 1.80275C6.53709 1.70586 5.76411 1.69578 5.00208 1.65785L5.00008 27.5742ZM1.71001 31.1813L10.8697 31.1817L14.1345 31.152C14.6003 31.1484 15.2334 31.19 15.675 31.1498C15.6674 31.1462 15.6598 31.1426 15.6521 31.1391C15.2129 30.9405 14.7044 30.8184 14.2417 30.6843C11.8275 29.9847 9.32228 29.6068 6.82045 29.4024C6.23101 29.3587 5.64101 29.3224 5.0506 29.2935C4.70429 29.2747 4.33489 29.278 3.99554 29.2049C3.73455 29.1487 3.49982 28.9985 3.40124 28.7415C3.25081 28.3494 3.33608 26.1064 3.3368 25.542L3.34007 20.9771L3.34002 4.7678L1.70157 4.76596L1.71001 31.1813ZM37.2994 4.77528L37.3028 20.5702L37.3032 25.8454C37.3028 26.6707 37.3524 27.5897 37.297 28.3998C37.2818 28.6213 37.2317 28.8327 37.0731 28.9977C36.8889 29.1893 36.6533 29.2211 36.4026 29.2542C35.9412 29.3152 35.47 29.3223 35.0053 29.3433C34.5031 29.3649 34.0014 29.3977 33.5006 29.4418C31.1063 29.6426 28.7364 30.0689 26.4223 30.7151C25.9411 30.851 25.4099 30.9668 24.9539 31.1695C25.5269 31.1227 26.1165 31.1499 26.6916 31.1509L38.9763 31.1542L38.9687 13.5977L38.9678 7.61938C38.9758 6.67052 38.9771 5.72162 38.9717 4.77277C38.4143 4.76883 37.8569 4.76965 37.2994 4.77528Z" fill="#5477B2"/>
<path d="M24.6987 5.79346C24.8199 5.78481 24.9457 5.78236 25.0647 5.8102C25.2896 5.86272 25.4713 6.00224 25.5897 6.1993C26.0399 6.94915 25.7991 8.62001 25.5803 9.4649C25.0553 11.4923 23.5017 12.683 21.7883 13.6898C22.9536 14.4103 24.1171 15.2354 24.747 16.4965C25.2386 17.4806 25.3346 18.8081 24.9856 19.8516C24.6526 20.8471 23.878 21.765 23.0166 22.3503C22.6942 22.5693 22.3498 22.7415 22.0017 22.9145C23.1948 23.7477 24.7758 24.8295 25.2283 26.2829C25.3309 26.6122 25.409 27.0665 25.2327 27.3819C25.1538 27.5229 25.0211 27.6132 24.8674 27.6561C24.6371 27.7203 24.3511 27.7013 24.1419 27.58C23.7627 27.36 23.6571 26.7833 23.5469 26.3929L19.7425 26.3904C18.8547 26.3898 17.9648 26.3772 17.0776 26.4183C16.9546 26.774 16.8497 27.3206 16.5419 27.5655C16.3665 27.7051 16.1437 27.7278 15.928 27.6975C15.6898 27.6642 15.5386 27.5661 15.3942 27.3767C15.2408 27.124 15.2662 26.8041 15.3349 26.5282C15.7528 24.8494 17.2699 23.7852 18.6737 22.9493C17.6003 22.3095 16.6548 21.5531 15.9763 20.4857C15.384 19.554 15.317 18.462 15.5558 17.4008C15.9492 15.6528 17.4127 14.615 18.8361 13.714C18.1159 13.2251 17.4127 12.7789 16.7819 12.1719C15.5901 11.0251 14.8479 9.54465 14.8228 7.87384C14.8148 7.34225 14.8247 6.43782 15.2334 6.03956C15.3762 5.90044 15.5742 5.84971 15.7694 5.86256C15.9994 5.87776 16.2416 5.97824 16.3896 6.15989C16.6829 6.52002 16.462 7.22713 16.4091 7.65447C17.6546 7.64536 18.9001 7.64485 20.1456 7.65298C20.6684 7.66071 21.1894 7.69895 21.712 7.70944C22.5657 7.72915 23.4199 7.71103 24.272 7.65513C24.2762 7.18465 23.9716 6.55498 24.2126 6.12857C24.3224 5.93432 24.4937 5.85555 24.6987 5.79346ZM23.3328 10.1148C23.3986 10.1119 23.4226 10.122 23.4698 10.0719C23.7261 9.80001 23.9498 9.16819 24.0584 8.80949C22.8091 8.78712 21.5596 8.77827 20.3102 8.78298C19.3146 8.78047 18.3184 8.76343 17.323 8.77018L16.5502 8.78052C16.7168 9.24763 16.9146 9.68054 17.1602 10.1118C18.0425 10.1127 18.9261 10.1042 19.8082 10.1186C20.28 10.1263 20.7507 10.1608 21.2227 10.1612C21.927 10.1619 22.629 10.124 23.3328 10.1148ZM17.0774 18.6567C18.068 18.6445 19.0565 18.6275 20.0467 18.6648C21.2045 18.7379 22.3709 18.6781 23.5295 18.6485C23.5425 18.1938 23.4956 17.8444 23.3684 17.4083C22.4398 17.4079 21.4951 17.3713 20.5684 17.422L18.6689 17.4443C18.2073 17.4531 17.7249 17.4886 17.2654 17.4343C17.1574 17.8428 17.0779 18.2317 17.0774 18.6567ZM20.3945 22.0655C21.0091 21.7125 21.6386 21.3681 22.2321 20.9805C22.6641 20.6575 22.9604 20.2902 23.2491 19.8367C21.3126 19.8528 19.3761 19.8535 17.4397 19.8389C18.168 20.9441 19.2329 21.516 20.3945 22.0655ZM20.2804 12.7127C20.7232 12.4375 21.1724 12.1692 21.6083 11.8832C21.8935 11.693 22.1876 11.507 22.4436 11.2776C21.048 11.2662 19.6494 11.3062 18.2549 11.2658C18.746 11.857 19.6252 12.3126 20.2804 12.7127ZM22.5383 25.2466C21.8976 24.7027 21.1672 24.2592 20.4141 23.8869C19.6776 24.2895 18.9293 24.6786 18.2648 25.1959C18.9881 25.1801 19.6953 25.1721 20.4178 25.2181C21.1199 25.2907 21.8339 25.2229 22.5383 25.2466ZM20.282 14.6649C19.4628 15.1326 18.6432 15.6085 17.9563 16.2631C18.7675 16.2621 19.5787 16.2695 20.3897 16.2854C21.1349 16.2853 21.88 16.2777 22.625 16.2625C22.4641 16.0935 22.2987 15.941 22.1133 15.7991C21.8966 15.633 20.4955 14.6903 20.3056 14.6651C20.2978 14.664 20.2899 14.665 20.282 14.6649Z" fill="#5477B2"/>
</svg>
