<svg xmlns="http://www.w3.org/2000/svg" width="167" height="80" fill="none" viewBox="0 0 167 80"><g clip-path="url(#sleep_svg__a)"><path fill="#222629" d="M46.164 14.175c.479-3.37 3.195-6.45 5.819-8.437C57.83 1.31 63.653.811 70.676 1.832c4.088.594 6.745 1.599 10.38 3.577 3.88 2.113 9.011 6.422 13.48 6.82 5.457.486 10.932-3.95 15.245 1.813.442.592.93 1.433 1.21 2.115 6.115-.056 11.627 1.18 16.119 5.63 4.311 4.269 7.187 9.02 10.035 14.285a108 108 0 0 1 3.736 7.407c1.199 2.63 2.271 5.322 3.46 7.953 1.16 2.57 2.467 5.118 3.708 7.652 1.803-.072 4.581-.005 6.418.064 3.063.114 7.767-.323 10.555.484-2.279.209-5.112.125-7.44.085-6.088-.103-12.297.16-18.368-.02 1.53 4.16 2.592 9.793.67 13.946a5 5 0 0 1-.24.456c-.004.47.012.88-.183 1.32l-.004.09c-.086.176-.372.758-.486.852-.876.718-2.816 1.81-3.835 2.119-2.952.898-6.771.448-9.797.696l-.111-.06c.136-.188.286-.234.499-.334-.259-.02-.711.055-1.061.034-1.07-.065-2.138-.144-3.208-.217-1.255.069-6.092-.654-7.226-1.127-.265-.118.056-.147-.458-.4a45 45 0 0 0-2.574-.577c-.38.015-1.268-.19-1.522-.48l.025-.16c-.39-.388-1.474.001-1.884-.37l-.161-.256c-.121-.144-.733-.177-1.129-.358l-.738-.753c-.83 1.328-1.721 2.868-2.629 4.118-1.991-.148-4.372-.653-6.406-.883-2.62-.296-5.265-.604-7.886-.878l-9.711-.982c-4.324-.399-7.638-.637-11.95-1.397-.391.281-.616.497-1.112.571-1.616.242-3.842-.212-5.18-1.135-.512-.29-1.095-.376-1.671-.501l-.63-.104c-1.504-.329-3.808-.559-5.37-.722-.762-.111-1.57-.216-2.322-.365-.998.441-3.824 2.098-4.847 2.716-.383.2-2.045 1.053-2.27 1.283-.318.032-.432.02-.752-.015-1.16-.13-5.114-.647-6.118-.614l-.38-.054q-1.275-.196-2.56-.297c-.252.13-.591.298-.875.296-.13-.028-.34-.038-.479-.049-.754-.001-2.552.359-3.048-.156-1.38-.204-4.193-.574-5.51-.514.927-.398 1.363.127 2.066-.485-.225-.03-.476-.048-.704-.07-.488-.123-2.41-.31-2.963-.356-.132-.05-1.117-.136-1.323-.157-.468-.066-.858-.13-1.333-.133l-1.032-.103c-1.157-.442-3.576-.04-4.786.039.419-.199 1.706-.326 2.277-.425-.487-.071-1.131-.095-1.635-.126l-.767-.092-.428-.045c-.366-.152-2.771-.41-3.293-.467-.766-.087-1.595-.2-2.36-.258-1.075-.583-.608-1.426.392-1.779.158-1.36.075-2.911.04-4.296-.464-.018-.69.004-1.025-.316-.338-.885 1.321-1.455 1.955-1.695-2.266-.235-2.052-2.1-2.122-3.92.036-.173.04-.18-.009-.347-.614-.339-2.485.074-3.235-.197 1.076-.044 2.164-.015 3.213-.06.197-1.863.684-4.848 2.879-5.308 1.991-.417 3.99-.813 5.984-1.22q5.174-1.088 10.362-2.11c-.015-.636-.03-1.132.157-1.767.658-2.245 2.62-4.657 4.168-6.382 1.5-1.672 3.462-2.71 5.437-3.687.575-.285 1.312-.574 1.85-.87 1.106-2.607 2.349-5.26 2.953-8.035.315-1.449.147-3.118.244-4.601.284-4.36 1.25-8.532 5.117-10.993"></path><path fill="#d5dadf" d="M109.703 75.854c.929-.389 3.829-.014 5.205-.162l.726.27c3.156 1.015 5.551 1.49 8.861 1.788.836.076 1.775.252 2.596.31l.049.033c.646.413.968.08 1.085.336-.397.063-1.271.048-1.683.036l.015.096c.285.094.597.048.898.026l-.016.044c-.683.214-1.473-.218-1.707.096l-.005.055c-.258-.02-.711.054-1.06.033-1.071-.064-2.139-.143-3.209-.216-1.255.068-6.092-.655-7.225-1.127-.266-.118.056-.147-.459-.4q-1.278-.326-2.574-.577c-.38.014-1.267-.19-1.521-.48z"></path><path fill="#fff" d="M114.394 77.19c1.362.156 2.678.335 4.033.559.524.086 1.899-.22 2.301-.077l-.004.049c-.008.144-.027.141.029.259.246.066 1.622.265 1.648.299-.276.09-.78.177-.943.32-1.255.069-6.092-.654-7.226-1.127.019-.047.13-.227.162-.282"></path><path fill="url(#sleep_svg__b)" d="M109.703 75.854c.929-.389 3.829-.014 5.205-.162l.726.27c-.238.218-.434.305-.764.275a41 41 0 0 0-4.111-.197c-.161 0-.984-.035-1.08-.025z"></path><path fill="#d5dadf" d="M111.2 76.495c.565.028 2.113.06 2.641.003l-.067.575q-1.278-.327-2.574-.578"></path><path fill="#d5dadf" d="m113.84 76.498.271.021c.125.315-.068.538.283.67-.033.056-.144.235-.162.283-.265-.118.056-.147-.459-.4zm24.68-1.206c.206.224.259.192.629.208l.309.01c-.087.175-.372.756-.487.85-.875.719-2.816 1.81-3.834 2.12-2.953.897-6.771.447-9.798.695l-.11-.06c.136-.188.286-.233.498-.334l.005-.055c.234-.313 1.024.12 1.707-.095l.016-.044c-.301.022-.613.068-.898-.026l-.015-.096c.412.012 1.286.027 1.683-.036-.117-.256-.439.076-1.085-.337l-.049-.031 1.352.16c4.346.494 6.674-.22 10.077-2.929"></path><path fill="#fff" d="m110.341 73.999.392.097c.24.098.626.24.828.376l.914.335c.254.087.524.174.77.277l.832.31c.277.087.571.171.831.298-1.376.148-4.277-.226-5.205.162-.39-.387-1.474.002-1.884-.368l-.161-.257c-.121-.144-.733-.177-1.129-.358l-.738-.753.042-.102c1.444-.129 3.064.032 4.508-.017"></path><path fill="#fff" d="M107.658 75.229c.353-.278 4.742-.103 5.588-.145l.831.31c.277.087.571.171.831.298-1.376.148-4.277-.226-5.205.162-.39-.387-1.474.002-1.884-.368z"></path><path fill="#d5dadf" d="M114.078 75.394c.276.087.571.171.83.298-1.376.148-4.276-.226-5.205.162-.389-.387-1.474.002-1.884-.368.739-.183 4.461.085 5.426.095.365.004.589.046.833-.187m-1.603-.586c.254.086.524.173.771.276-.846.042-5.234-.133-5.588.145-.12-.144-.733-.177-1.129-.357 1.398-.067 3.176.084 4.6.05.377-.008 1.026.094 1.298.066zm-1.742-.712c.24.097.626.24.828.376-.362.093-4.676-.013-5.156-.083.325-.266 3.431.132 4.328-.293m-84.582-.145q2.45.285 4.904.538l-.208.269a.94.94 0 0 0 .263.308c-.897.133-.83-.063-1.515-.116-1.38-.204-4.193-.574-5.51-.513.927-.399 1.364.126 2.066-.486m80.019-.531c.932.023 2.046-.033 2.924.016.387.164.89.361 1.248.562-1.444.05-3.065-.11-4.509.018.08-.107.263-.46.337-.597"></path><path fill="#d5dadf" d="M106.937 72.269c.76.446 1.368.775 2.158 1.167-.879-.05-1.993.007-2.925-.017zM31.055 74.49c.524.056 2.534.251 2.942.37-.252.13-.591.297-.875.295-.13-.027-.34-.037-.479-.049-.754 0-2.552.36-3.048-.156.684.053.618.25 1.514.116a.9.9 0 0 1-.263-.308zm107.535.714c.384-.313.725-.73 1.054-1.105-.004.47.012.879-.183 1.32l-.004.09-.309-.01c-.369-.015-.423.017-.628-.207z"></path><path fill="#d5dadf" d="M138.59 75.204c.268-.023.606-.089.822.048l.049.167-.004.09-.309-.01c-.369-.014-.423.017-.628-.207z"></path><path fill="#fff" d="M111.271 16.96c4.271-.112 9.061.87 12.606 3.337.32.222.612.42.867.717.091.186.114.217.08.418 7.807 4.333 15.476 23.047 19.033 31.063a108 108 0 0 0 1.986 4.186c.256.505 1.001 1.838 1.159 2.291-.237.111-.51.084-.776.084l-.26-.017-1.884.002-.163.034c-.395-.048-1.235-.029-1.665-.03l-.13.01-.542-.018-.084.008-1.21.005-.103.026-.523-.007c-.212.007-.345-.006-.552-.025-.085-.066-.122-.088-.164-.192-1.348-3.323-2.784-6.541-4.294-9.794a34 34 0 0 1-.637-1.432l-.506-1.13a17 17 0 0 1-.458-.985l-.421-.97c-.482-1.098-.777-1.69-.773-2.894-.072-1.057-.305-2.318-.412-3.44-.201-.677-.368-1.21-.477-1.913-.566-1.746-1.155-4.085-1.69-5.908l-.145.141a64 64 0 0 1 2.449 11.274c-.534-.858-1.056-2.622-1.481-3.604a94 94 0 0 1-1.958-4.857l-.037.444c.545 1.613 1.058 3.284 1.565 4.915 1.386 4.46 3.264 8.441 5.195 12.658a157 157 0 0 1 2.476 5.761c1.034 2.5 1.978 4.899 2.457 7.582.258 1.505.346 3.035.261 4.56-.065 1.313-.326 2.93-.903 4.126-.765 1.585-3.659 3.219-5.251 3.746-2.643.875-6.766.01-9.621-.283-.452-.035-2.687-.282-3.003-.417-2.192-.229-5.05-1.13-7.136-1.948-.711-.18-2.062-.657-2.734-.954l-.457-.167c-1.486-.554-2.622-1.165-3.979-1.968-.188-.058-1.085-.63-1.328-.763-1.848-1.009-3.852-2.566-5.689-3.493l-.228-.117c-3.645-1.26-4.746-1.397-5.35-5.474-.121-.838-.377-2.933-.126-3.78.775-2.42 2.418-5.884 4.411-7.443s4.953.727 7.208 1.02c2.444.32 4.755-.012 7.155.265.418.048 1.879.41 2.089.732 0 0 1.365.373 1.995.685 0 0 1.922.76 2.738 1.134 2.272 1.04 4.802 2.591 7.178 3.37.016-.033.015-.111.018-.154l-.316-.246c-2.407-1.379-5.648-3.037-8.247-4.105-.503-.188-.93-.368-1.421-.587 1.097.087 2.171.197 3.253.398 1.649.136 5.8.827 7.37 1.201l.067-.202c-1.462-.335-2.902-.69-4.375-.979l-.238-.052-.71-.135c-.258-.032-.559-.103-.817-.157-.508 0-1.985-.232-2.547-.302-1.044-.13-2.007-.191-3.049-.293l-.392-1.21-.188-.41c-.231-.603-.512-1.181-.787-1.766l-.382-.954c-1.125-2.171-2.283-4.203-3.09-6.533-.292-.843-.616-1.814-.992-2.608l-.122.077.054.37c-.223.115-.249.167-.387.369.123.253 1.16 4.794 1.206 5.128l-.358-.199c-1.057-.675-1.727-1.944-2.188-3.067-.081-.133-.153-.288-.224-.428-.469-.946-.837-2.327-1.072-3.353-.417-2.658-.365-5.199.893-7.623.232-.58 1.069-2.046 1.403-2.695.134-.276.298-.71.42-1.005.42-1.215.572-2.46 1.099-3.613.681-2.051.796-3.306.361-5.437"></path><path fill="#fff" d="M121.835 39.737c.088.3-.007.38.042.61l.232-.017c-1.378 1.228-3.465 3.134-4.73 4.409l-.148.075c-.228.372-.656.424-.652.907-.135.124-.228.212-.378.321l-.295.352c-.224.324-.397.543-.526.92-.116-.106-.191-.227-.282-.355-.102-.099-.215-.278-.299-.4-.088.282-.124.495-.35.682q.047-.4.104-.797l-.116-.133c-.049-.622-.656-1.395-.518-1.862.223-.123.214-.138.458-.099l.16.238c.242.306.26.443.361.826l.106-.012c.191-.328.108-.551.491-.783l-.05.117c.366-.24.484-.646.655-1.052l.098.115c.79-1.397 4.222-3.293 5.637-4.062"></path><path fill="#d5dadf" d="m116.1 43.684.098.115c-.334 1.01-.708 1.603-.919 2.773l-.069-.044c-.04-.223.024-.616.115-.817.135-.302.005-.378.063-.517l.082-.031.022-.17c-.394.508-.513 1.3-.693 1.566-.088.282-.124.495-.35.682q.047-.4.104-.797l-.116-.133c-.049-.622-.656-1.395-.518-1.862.223-.123.214-.138.458-.1l.16.239c.242.306.26.443.361.826l.106-.012c.191-.328.108-.551.491-.783l-.05.117c.366-.24.484-.646.655-1.052"></path><path fill="#fff" d="m114.377 44.35.16.238c.242.305.261.443.361.826l.106-.012c-.071.308-.076.42-.283.584-.363-.168-.529-.912-.647-1.287q.15-.176.303-.35"></path><path fill="#d5dadf" d="m114.898 45.414-.09.026c-.19-.208-.274-.572-.271-.852.242.305.26.443.361.826m1.008.98c-.009-.4.87-2.797 1.072-3.274.11.247-.668 2.309-.777 2.922zm1.837-3.629.065-.043c-.005.53-.423 1.513-.577 2.091l-.157-.002c.027-.308.53-1.644.669-2.046m1.027-1.115c.106.495-.48 1.785-.693 2.255-.096-.333.536-1.806.693-2.255m1.048-.41c.122.437-.503 1.271-.798 1.574-.006-.176.641-1.262.798-1.574m.971-.722c.049.337-.569 1.155-.792 1.493-.014-.426.535-1.126.792-1.493m13.155 4.73.139-.09c.108.158.155.259.32.356.347 1.018.531 2.906 1.077 3.56l.161-.17c-.031-.848-.647-2.812-.594-3.065l.08.032c.243.607.278 1.07.451 1.664.484 1.657.948 3.331 1.467 4.978.179.568.827 1.486 1.083 2.095.622 1.48 1.071 2.934 1.534 4.46-.212.008-.345-.005-.552-.025-.085-.065-.122-.088-.164-.191-1.348-3.324-2.784-6.541-4.294-9.795a34 34 0 0 1-.637-1.431l.209-.08.036-.167c.053-.39-.229-1.673-.316-2.131"></path><path fill="#fff" d="m133.944 45.248.139-.09c.108.158.155.259.32.356-.295.667.69 2.792.579 3.388-.089.014-.166.025-.254.044l-.076.111a34 34 0 0 1-.637-1.431l.209-.08.036-.167c.053-.39-.229-1.673-.316-2.131"></path><path fill="url(#sleep_svg__c)" d="m94.38 61.548.122-.06.06-.233.137-.001c.47.591 1.306 2.913 1.952 2.995q.067.007.134.007l.026.029c.402.346.534.65.856.999.147.125.328.296.498.373l-.025-.206.098-.125c.352.225.469.513.724.757.333.562.686.17.769.94-3.645-1.26-4.746-1.397-5.35-5.475"></path><path fill="#d5dadf" d="M96.812 64.284c.401.347.534.651.855 1-.431-.035-.736-.633-.856-1"></path><path fill="#fff" d="M107.989 29.71c.206-.155.308-.293.527-.305.017.179-.02.327.043.442-.175.538-.177 1.608-.264 1.714q-.148.977-.34 1.944c-.276 1.156-.471 1.952-.596 3.139.001.304-.093.43-.264.69-.417-2.658-.365-5.2.894-7.623"></path><path fill="#d5dadf" d="M108.295 31.56q-.148.977-.34 1.945c-.276 1.155-.471 1.951-.596 3.138-.165-.815.591-4.485.936-5.082"></path><path fill="url(#sleep_svg__d)" d="M110.187 37.687c1.036 1.217 3.245 8.285 4.25 8.624l.116.133q-.057.397-.103.797l-.181.337c-1.126-2.171-2.284-4.203-3.091-6.533-.292-.843-.616-1.814-.991-2.608l.116-.16a1.8 1.8 0 0 1-.116-.59"></path><path fill="url(#sleep_svg__e)" d="M118.542 52.894c1.128.427 2.681.516 3.793 1.212.891.38 2.633 1.168 3.383 1.734.235.188.941.73 1.049.958l.054.254-.09.078c-2.407-1.379-5.648-3.037-8.247-4.105z"></path><path fill="#d5dadf" d="M122.335 54.106c.891.381 2.632 1.169 3.383 1.734l-.134.047c-.517-.18-2.493-1.385-3.15-1.616z"></path><path fill="#fff" d="m107.955 33.506.092 1.209c.123.379.38.959.387 1.306l-.097-.065c-.241.814.016 4.37-.17 4.73-.469-.945-.837-2.326-1.072-3.352.171-.26.265-.385.264-.69.125-1.187.319-1.983.596-3.138"></path><path fill="#d5dadf" d="M108.047 34.715c.02.466-.139 3.071-.379 3.325-.071-.528.149-2.834.379-3.325m13.236 41.716c.593-.153 1.973.183 2.652.143-.346-.093-2.618-.624-2.856-.632-2.236-.073-3.68-.818-5.631-1.763a812 812 0 0 1-2.266-1.794l.089-.047c.57.2 2.806 1.714 3.564 2.107 1.774.918 3.304 1.01 5.2 1.46.402.096 1.994.336 2.128.657.015.036.103.236.123.286-.453-.035-2.687-.282-3.003-.417m-6.164-24.089c.952 2.007 1.935 3.438 3.287 5.197l-.12.011c-.149-.018-.077-.03-.218.056.028.382.342 1.224.48 1.627-.438-.462-.538-1.332-.825-1.984a12 12 0 0 0-1.2-2.15c-.157-.22-.591-.778-.853-.822.011.405.42 1.028.515 1.413.387 1.55 1.08 2.848 1.909 4.208.193.316 1.287 1.735 1.275 1.938-.208-.057-.321-.175-.451-.338-1.435-1.793-4.045-6.985-3.799-9.156m3.167 5.208.119-.012c.917 1.118 1.666 2.014 2.703 3.017l-.319-.07c-.122.477 1.045 1.938.909 2.527-.482-.137-.838-.81-1.034-1.227-.283-.46-.334-.583-.503-1.09l-.178-.013-.09.154c-.187-.446-.56-1.451-.966-1.623-.271-.443-.496-1.168-.641-1.664"></path><path fill="#d5dadf" d="M120.161 60.694c.297.139.487.786.503 1.091-.283-.46-.334-.583-.503-1.09"></path><path fill="#222629" d="M116.101 43.684c1.037-1.685 4.66-3.709 6.571-4.467a.61.61 0 0 1 .553.05c-.029.618-4.861 4.65-5.636 5.5l-.21-.028c1.265-1.275 3.352-3.181 4.73-4.41l-.232.017c-.049-.23.046-.31-.042-.609-1.415.77-4.846 2.665-5.637 4.062z"></path><path fill="#fff" d="M122.152 39.585c.406-.23.782-.336 1.224-.482-.357.44-.786.922-1.267 1.227l-.232.016c-.049-.23.046-.31-.042-.609z"></path><path fill="#d5dadf" d="m121.835 39.737.317-.152c-.07.268-.118.536-.275.76-.049-.23.046-.31-.042-.608m-6.366 10.347.11.19c.2-.277.133-.477.545-.697 1.407-.75 4.847-2.604 6.275-2.826-.406.209-2.343 1.05-2.493 1.157-.47.331-4.174 2.644-4.28 2.8l-.188-.41z"></path><path fill="#fff" d="M116.574 51.636c.488.083 3.058-.191 3.695-.246l-.034.155c.308.097 1.093.728 1.378.967-.508 0-1.985-.232-2.547-.302-1.043-.13-2.007-.191-3.048-.293.218-.163.304-.186.556-.281"></path><path fill="url(#sleep_svg__f)" d="M114.799 46.559c.084.122.197.3.3.4.09.128.165.248.281.354-.037.567-.062 1.189.11 1.735.208.168.152.116.5.083l-.03-.021c-.018.281-.47.443-.49.974l-.032.214c-.232-.603-.513-1.182-.788-1.766l-.381-.955.181-.337c.225-.187.261-.4.349-.681"></path><path fill="#d5dadf" d="M114.799 46.559c.084.122.197.3.3.4-.346.653-.36.856-.449 1.573l-.381-.955.181-.337c.225-.187.261-.4.349-.681"></path><path fill="#222629" d="M116.574 51.636c2.061-.497 6.16-.66 8.288-.36 1.33.189 3.254 1.682 3.96 2.697l-.025.06c-2.904-2.706-2.892-2.584-6.713-2.722-.371-.065-1.445-.014-1.815.079-.637.055-3.207.33-3.695.246"></path><path fill="#fff" d="M115.319 52.212c.6.263 1.208.524 1.795.814-.356.062-.656-.079-.988-.195l-.014.06c.518.576 1.104.72 1.581 1.257-.27-.094-.627-.365-.873-.534l.014.047c.048.157.063.18.057.34-.206-.023-.127.003-.295-.118.091.703 2.624 3.11 2.679 3.836-1.732-2.033-2.644-3.176-3.956-5.507"></path><path fill="#d5dadf" d="M109.812 26.01c.42-1.214.571-2.459 1.098-3.612.497 1.12-.519 3.046-.771 4.184-.009.042-.073.108-.101.138-.121-.364.302-.695.101-1.146-.089.074-.102.2-.133.32-.095.078-.087.092-.194.117m21.157 10.283.118-.084c.025-.888-.309-2.56-.427-3.492-.054-.421-.488-1.809-.447-2.14l.091.038c.369 1.292 1.393 6.362 1.142 7.59-.201-.676-.368-1.209-.477-1.912m-23.992 35.101c.923.216 3.047 1.517 3.512 1.538-.528-.573-.815-.485-1.242-.753-.249-.157-1.25-1.312-1.442-1.578.43.213 2.921 2.294 3.15 2.761-1.486-.554-2.622-1.165-3.978-1.968m4.436 2.135.207-.14c-.161-.394-2.579-2.04-3.101-2.71l.053-.045c1.557.943 3.069 2.765 4.842 3.503.259.107.521.152.733.346-.711-.18-2.062-.657-2.734-.955m22.847-26.15c-.46-1.366-.692-3.579-.988-5.073-.161-.814-.63-2.655-.694-3.347.401.6 1.267 5.425 1.367 6.288.086.458.368 1.741.315 2.132m-2.404-5.732.134.17c.215-.481-.07-1.986.144-2.178.302.505.038 2.186.116 2.813.088.71.422 1.361.38 2.089-.482-1.099-.777-1.69-.774-2.894m-22.464-14.632c.237.605-.567 2.177-.833 2.831-.062-.115-.026-.263-.043-.441-.219.012-.321.149-.527.305.232-.58 1.068-2.046 1.403-2.695"></path><path fill="url(#sleep_svg__g)" d="M120.269 51.39c.37-.093 1.444-.143 1.815-.079-.347.033-.484-.011-.732.172.05.482.823.728 1.078 1.187-.258-.032-.559-.103-.817-.157-.286-.24-1.071-.87-1.379-.967z"></path><path fill="#d5dadf" d="M140.185 59.076c-.182-.482-2.622-6.533-2.619-6.43l.055-.011c.498.895 2.544 5.477 2.668 6.414zm-29.606-14.894c.333-.284-1.293-5.104-1.189-5.716.113.14.12.487.342.786.122.253 1.16 4.795 1.205 5.128zm-2.411-3.496c.186-.36-.071-3.916.169-4.73l.098.064c-.01.833.1 4.571-.044 5.094-.08-.132-.153-.288-.223-.428m24.883 4.824.131.013c.126-.53-.742-3.252-.649-3.965l.088.037c.155 1.272.983 3.833.888 4.9a17 17 0 0 1-.458-.984"></path><path fill="#222629" d="M121.2 19.777c.796-.081 2.726.892 3.545 1.236.091.186.113.217.08.418-1.296-.76-2.236-1.167-3.625-1.654"></path><path fill="#d5dadf" d="M139.534 54.196c.36.751 1.929 4.204 2.048 4.84l-.084.009c-.697-1.474-1.597-3.285-1.964-4.849m-12.766 2.602c.764.57 1.827 1.3 2.533 1.888-.544-.16-1.119-.61-1.626-.888-.212-.116-.489-.183-.646-.268.017-.033.016-.111.019-.154l-.317-.246.09-.078zm-5.203 4.204.282.288c-.24.44 1.055 2.81 1.535 3.15.057.041.041.067.062.146-.741-.067-1.828-2.812-1.879-3.584m-4.502-8.563c1.098.086 2.171.196 3.254.397-.563.065-1.645-.058-1.833.004l.058.053-.057.132c-.504-.188-.93-.368-1.422-.587"></path><path fill="#222629" d="M127.753 53.836c.736.388 2.561 1.408 3.082 2.02-.089.005-2.506-1.614-3.148-1.818z"></path><path fill="#d5dadf" d="M142.124 59.055c-.29-.837-.825-1.566-1.118-2.546.191.226 1.195 2.259 1.249 2.535zm3.842-.016c-.436-.481-.984-.969-1.124-1.584.328.114 1.086 1.28 1.384 1.6zm-47.004 7.044c-.042-.23-.099-.287.005-.439.31.191.917 1.14.992 1.495l-.229-.117c-.082-.769-.435-.377-.768-.94m19.965-6.868c.405.171.779 1.176.966 1.622l.026.181c-.26-.195-.827-1.437-.992-1.803m-8.863-20.701c-.084-.285-.267-.816-.264-1.091l.063-.053c.17.102.198.159.324.317.009.239.041.368.116.591l-.117.16z"></path><path fill="#222629" d="M128.107 33.784c-.27-.79-.434-1.298-.619-2.124.214.605.478 1.036.655 1.68z"></path><path fill="#d5dadf" d="M143.92 59.075c-.248-.395-.501-.784-.716-1.198l.041-.112-.085.02a2 2 0 0 1-.056-.137l.031-.037.093.099-.033.095c.271.043.734.962.887 1.235zm-20.78-6.27c-.239-.268-.722-.8-.848-1.109.295.247.941.818 1.086 1.16zm-5.761-8.067.211.028q-.51.474-1.011.954c-.004-.482.425-.535.652-.906zm11.513-14.95a6.3 6.3 0 0 1-.308-.983c.156.134.326.612.418.828z"></path><path fill="#222629" d="m128.892 29.788.109-.155.277.752-.145.141z"></path><path fill="#fff" d="M112.425 53.91c-.012-.326.029-1.676.225-1.887l.164.32c.675.896 1.568 4.874 2.024 6.159.752 2.117 1.427 3.97 1.965 6.164l.048.157-.124.209c-.232-.223-.346-.423-.52-.693l-.048.178-.03-.03c-2.69-2.642-3.674-6.918-3.704-10.576"></path><path fill="#d5dadf" d="M112.425 53.91c-.012-.326.029-1.676.225-1.887l.164.32c-.19.654-.275 1.21.372 1.634l-.002-.07c.239.212.169.142.277.47-.305.258-.258.765-.19 1.12-.139-.2-.261-.373-.384-.585-.129-.16-.211-.408-.29-.604l-.1-.16z"></path><path fill="#fff" d="m112.497 54.148.123-.296c.36.028.461.48.456.784-.064.153-.064.175-.189.276-.128-.16-.211-.408-.29-.604zm.775 1.349c-.069-.355-.116-.863.19-1.121l.812 3.195c-.312.61-.163 1.229-.379 1.878l.053.1c-.064.065-.238.25-.303.291-.301-.847-.554-1.87-.731-2.757l-.042-.111a2.6 2.6 0 0 1-.02-.502c.052-.163-.088-.475-.151-.672.232.018.414.106.612.01z"></path><path fill="#d5dadf" d="M113.594 56.944c-.019-.367-.04-.47.124-.79.065.265.052 1.158-.012 1.415-.233-.246-.429-.48-.793-.486l-.041-.111c.28.037.368.167.676.148z"></path><path fill="#fff" d="M112.852 56.47c.335.083.478.244.741.474l-.045.176c-.308.02-.396-.11-.676-.148a2.6 2.6 0 0 1-.02-.502"></path><path fill="#222629" d="m112.425 53.91.072.238.1.16c.079.195.161.444.29.603.123.212.245.385.385.586l.04.31c-.198.097-.379.009-.611-.009.063.196.202.508.151.671-.005.204-.007.301.02.502l.041.112c.177.887.431 1.91.732 2.757.463 1.214 1.563 3.652 2.562 4.498l-.047.178-.031-.03c-2.69-2.642-3.674-6.918-3.704-10.576"></path><path fill="#d5dadf" d="M112.597 54.309c.079.195.161.443.29.603.123.212.245.385.384.586l.041.31c-.198.097-.379.009-.611-.01.006-.247-.099-1.064-.104-1.49m1.677 3.263.101.2c-.381 1.077.331 2.478-.098 3.102-.058-.42.065-.887-.105-1.246-.106-.055-.111-.074-.224-.078l-.053-.1c.216-.65.066-1.269.379-1.878m.485 2.018.106.116a4.7 4.7 0 0 1-.054 1.642l-.097-.062q.009-.849.045-1.696m-2.28-35.58.077.166c-.341.612-1.173 2.039-1.401 2.621.222.354.21.394.1.862-.448 1.907-.996 3.933-1.116 5.892l-.102.05a6 6 0 0 1-.257-.273c-.107-.009-.054.003-.156-.09-.065-.426-.013-.689.04-1.11.009-3.292.998-5.437 2.815-8.118"></path><path fill="#222629" d="m112.479 24.009.077.166c-.341.612-1.173 2.039-1.401 2.621-.796 1.642-1.353 4.023-1.316 5.854-.012.225-.017.457-.059.677-.107-.009-.054.003-.156-.09-.065-.426-.013-.689.04-1.11.009-3.292.998-5.437 2.815-8.118"></path><path fill="#222629" d="m109.664 32.128.036.556.065.028.074-.062c-.012.225-.017.457-.059.677-.107-.008-.054.003-.156-.09-.065-.425-.013-.688.04-1.11"></path><path fill="#fff" d="M127.148 75.593c-.355-.083-1.503-.365-1.718-.567l.068-.046c1.678.455 4.137.908 5.893.727.518-.054 1.303-.6 2.25-.517-.219.212-1.947.55-2.367.665.708.36 1.731.67 2.523.444.247-.071.619-.29.844-.26l.05.1c-.161.191-2.638.943-2.823.902l-.046-.082c.288-.125.807-.156 1.1-.362l-.038-.079-.195-.039c-.282.043-.628.08-.887.182l-.125-.05c-.155.037-.807.245-.836.236-1.047-.29-2.307-.64-3.344-.881l-.212-.025c-.033-.249.007-.16-.137-.348"></path><path fill="#d5dadf" d="M127.148 75.593c-.355-.083-1.503-.365-1.718-.567l.068-.046c1.678.455 4.137.908 5.893.727.518-.054 1.303-.6 2.25-.517-.219.212-1.947.55-2.367.665.708.36 1.731.67 2.523.444.247-.071.619-.29.844-.26l.05.1c-.161.191-2.638.943-2.823.902l-.046-.082c.288-.125.807-.156 1.1-.362l-.038-.079-.195-.039c-.477-.05-1.071-.33-1.633-.423a42 42 0 0 0-3.908-.463"></path><path fill="#d5dadf" d="M127.497 75.966c.701-.149 3.258.76 4.142.617l.038.028c-.155.037-.807.245-.836.236-1.047-.29-2.307-.64-3.344-.881"></path><path fill="#222629" d="M114.55 42.458c.08-.83 1.388-2.849 1.897-3.505 2.076-2.682 4.002-4.273 7.357-4.786l.046.143c-3.364.752-5.798 2.69-7.726 5.544.272.567-.051.996-.346 1.503-.174.337-1.017 2.12-1.165 2.294-.013-.416.039-.655.279-1.002-.076-.143-.148-.125-.342-.19"></path><path fill="#d5dadf" d="M114.55 42.458c.246-.227.707-1.183.913-1.55.163.187.197.228.315.45-.174.336-1.017 2.119-1.165 2.293-.013-.417.039-.655.279-1.002-.076-.143-.148-.126-.342-.19"></path><path fill="#d5dadf" d="M115.464 40.908c.197-.337.45-.72.66-1.053.272.566-.051.995-.346 1.503a1.8 1.8 0 0 0-.314-.45m-.186 30.031c.997.044 4.391 2.245 5.595 2.765.86.372 3.049.994 3.651 1.491-.336.077-1.142-.345-1.54-.413-1.366-.23-2.787-.15-4.149-.465 1.161-.272 2.627.289 3.831.277-.839-.512-3.559-1.175-4.61-1.21-1.594-.273-3.43-.92-4.664-1.998l.044-.053c.543.13 1.172.63 1.668.908 1.154.649 2.273.867 3.569 1.038-.819-.436-1.732-.802-2.484-1.344 1.428.495 2.649 1.33 4.141 1.692-1.55-.834-3.636-1.74-5.052-2.688m-18.012-11.84c.176.135 1.621 3.488 2.016 4.098.672 1.038 1.531 1.27 1.969 1.85-.516-.193-.978-.54-1.436-.843.842 1.25 1.953 2.48 2.97 3.598.408.448.875.79 1.223 1.297-.418-.076-2.309-2.098-2.753-2.534-.683-.815-1.108-1.834-1.791-2.64-.681-.801-1.875-1.325-2.736-1.932-.47-.33-1.878-1.32-1.976-1.89.263.082 1.444 1.276 1.795 1.549.825.639 1.74 1.19 2.617 1.758-.784-1.261-1.577-2.867-1.898-4.311m39.492-16.729c.385.276 1.108 5.492 1.462 6.446l.013.036c-.07.255-.071.078-.366.291.109.64.256 1.66.455 2.244.308.908.748 1.793 1.067 2.72l-.192-.012c-.848-1.246-1.544-4.555-1.746-6.08.101-.099.188-.17.297-.26.042-.222-.88-4.68-.99-5.386m-14.146 20.073c.311.147.772.963 1.008 1.265l.008-.038c.552.52.622 1.318 1.389 1.89.364.272.969.661 1.423.593.291-.836-1.717-2.967-1.811-3.616l-.008-.068c.759.68 1.655 2.255 2.055 3.208.101.241.15.394.05.638a.7.7 0 0 1-.549.017c-.623-.196-2.163-1.11-2.52-1.65-.233-.35-.778-1.712-1.045-2.239"></path><path fill="#222629" d="M123.6 48.556c1.999-.063 4.877.313 6.723 1.119l-.097.024.068-.047-.044-.022-.048.066c-.895-.115-1.804-.37-2.689-.55-2.534-.473-4.985-.378-7.537-.205l-.003-.09a41 41 0 0 1 3.627-.295m-21.268 3.386c1.049 2.273 4.625 7.043 6.399 8.793l-.213.016a40.6 40.6 0 0 1-4.47-5.576c-.667-1.003-1.188-2.133-1.81-3.12z"></path><path fill="#d5dadf" d="M133.829 40.436c.122.131.413.925.502 1.131.959 2.245 1.643 4.609 2.27 6.965.226.85.602 2.268.679 3.134-.268-.293-.588-2.268-.758-2.855-.443-1.523-.85-3.047-1.333-4.56-.315-.989-1.276-2.886-1.36-3.815m-31.185 13.438c.381.232.645 1.048.841 1.457a53 53 0 0 0 1.805 3.452c.628 1.08 1.346 2.151 1.858 3.291-1.056-.771-3.882-6.804-4.504-8.2m1.169 9.022c.105.095.363.317.44.416l.272.02c.162.15.29.258.423.438l-.148.07c.155.168.818.865.905 1.008l-.134.152c.108.563 1.459 1.678 1.448 1.943-.451-.17-3.153-3.524-3.206-4.047"></path><path fill="#d5dadf" d="M104.526 63.332c.162.15.289.258.422.438l-.148.07a2.7 2.7 0 0 1-.547-.528z"></path><path fill="#222629" d="M113.572 22.716c1.06-1.332 3.627-3.218 5.366-3.1-.08.097-.569.252-.719.3-1.633.514-3.471 1.6-4.591 2.932z"></path><path fill="#d5dadf" d="M106.529 68.818c.584.098 1.338.591 1.906.82.623.25 3.09.883 3.398 1.233a3 3 0 0 0-.314-.064l.087.215-.104.158c-.349-.397-.665-.544-1.168-.674l.017.038c-.522-.162-2.301-1.01-2.698-.93l.159.25-.049.059c-.396-.412-.816-.727-1.234-1.105m18.142-23.941-.017.074c-.545.488-5.882 2.803-7.017 3.335l-.002-.158c.717-.417 2.103-1.02 2.875-1.367a332 332 0 0 0 4.161-1.884"></path><path fill="#222629" d="M100.527 58.106c.744 1.244 2.978 4.156 3.999 5.225l-.273-.02c-.077-.099-.334-.32-.439-.416-1.076-1.298-2.454-3.212-3.378-4.631z"></path><path fill="#d5dadf" d="M119.54 57.003c.707.577 1.329 1.402 1.951 2.077.983 1.068 2.044 2.047 2.889 3.236-.507-.19-4.506-4.716-4.84-5.313m18.499 15.812c-.002.066-.003.118-.027.18-.134.35-1.881 2.477-2.182 2.59-.255.097-.507.203-.761.303-.001-.018-.007-.036-.005-.054.016-.223.438-.434.615-.56.902-.642 1.606-1.65 2.36-2.459m-23.481-.071.084-.032c.756.134 3.159.957 3.838 1.37-.095.13-.254.02-.421.125l.056.211a1.9 1.9 0 0 1-.562-.139.53.53 0 0 0 .128-.283c-.535-.543-2.315-.715-3.123-1.252m5.809 2.302q.091-.015.184-.022c.614-.043 4.385.962 4.873 1.388-.48-.051-1.028-.28-1.503-.406-1.179-.312-2.397-.575-3.554-.96m22.659-20.256c.66.33 1.663 3.175 2.133 3.963l-.055-.028c-.403-.223-1.899-3.36-2.078-3.936m-17.844 20.959c.727.069 3.519.844 4.131 1.212-1.315-.173-3.004-.513-4.131-1.212m12.402-3.441.103.054c-.047.625-2.131 2.45-2.678 2.924l-.162-.042c.123-.319.874-.8 1.137-1.071a21 21 0 0 0 1.6-1.865m1.452-18.084c.645.788 1.456 3.37 1.84 4.446-.444-.299-1.687-3.778-1.84-4.446m-26.796-2.135c.064.349-.154.965-.197 1.335-.126 1.072-.141 2.148-.241 3.222a.7.7 0 0 1-.099-.197c-.203-.788.128-3.61.537-4.36m30.677 1.142c.34.363 2.386 3.7 2.601 4.213l-.052-.034c-.343-.235-2.476-3.692-2.549-4.18m-17.258 21.24c.687.06 1.437.3 2.121.435.752.148 1.534.215 2.271.42-1.059.132-3.494-.277-4.392-.855"></path><path fill="#222629" d="M104.948 63.77a32 32 0 0 0 3.226 3.212l-.151.077c-.776-.636-1.611-1.495-2.318-2.212-.087-.143-.75-.84-.905-1.007z"></path><path fill="#d5dadf" d="M120.205 63.491c.068.02.125.032.179.083.421.39.797 1.022 1.17 1.481.538.664 1.125 1.284 1.685 1.93-.869-.359-2.571-2.61-3.034-3.494m-16.928 2.837c.041-.003.084-.023.122-.009.112.043.576.688.688.812.599.662 1.265 1.195 1.989 1.71a.8.8 0 0 1-.295-.05c-.825-.321-2.164-1.647-2.504-2.463m6.846 5.102c.492.1 2.649 1.668 3.031 2.069l-.092-.018-.048-.011c-.638-.144-2.439-1.533-2.891-2.04m6.084-7.092c.174.27.287.47.52.693.45.655 1.421 1.694 1.974 2.31-.561-.145-2.173-2.262-2.542-2.825zm23.168 3.89.014.03c.252.685.045 3-.233 3.69-.138-.976.104-2.702.219-3.72m-.607 1.045c.32.455-.043 2.695-.107 3.28q-.019-.02-.037-.044c-.229-.309.086-2.743.144-3.237M95.5 61.56c.346.348.37 1.02.68 1.414.38.485 1.084.785 1.383 1.293a.8.8 0 0 1-.362-.097c-1.008-.553-1.41-1.569-1.701-2.61m1.627 1.143c.36.358.434.902.718 1.313.272.392.71.672 1.004 1.07-.384-.124-.769-.487-1.094-.727-.22-.548-.444-1.094-.628-1.656m21.564-7.444c.587.145 2.593 2.123 3.144 2.64-.811-.282-2.441-1.98-3.144-2.64m5.352 7.184c.375.231 1.396 2.306 1.611 2.816q-.016-.006-.03-.014c-.511-.283-1.36-2.21-1.581-2.802m-23.607-4.179c-.364-.56-1.147-2.221-1.323-2.808.43.737 1.058 1.886 1.414 2.65zm11.874-1.039c.218.254.449 2.458.549 2.974l-.112-.01c-.358-.806-.493-2.087-.437-2.964m4.185-1.325c.535.284.835 1.63 1.025 2.198-.491-.313-.826-1.644-1.025-2.198m-16.204 10.16.198-.019c.331.387.564.79.822 1.092l-.159.074c-.343-.208-.778-.756-.861-1.147m38.567-1.758c.04.02.035.015.075.051.337.301.52 2.04.563 2.531-.261-.236-.542-2.142-.638-2.582m-33.954 4.842c.42.2 1.103.761 1.357 1.148-.103.062-.166.066-.283.074-.383-.345-.84-.759-1.074-1.222m28.542 6.673-.05-.11c.428-.407 1.067-.9 1.552-1.24l-.141.191c-.241.314-.99 1.11-1.361 1.16m-20.558-6.024c.563.009 1.441.558 1.855.933-.567-.027-1.428-.573-1.855-.933m-3.052-35.738.119.102c.147.43.179 1.586.211 2.086l-.124-.105c-.142-.628-.198-1.438-.206-2.083M96.99 55.22c.194-.022.353-.012.544.016-.128.156-1.37.346-1.689.454-.128.062-.27.104-.405.154l-.008-.057a4.6 4.6 0 0 1 1.558-.567m21.152.233q.103.024.201.067c.431.191 1.13.943 1.294 1.378-.536-.439-1.093-.874-1.495-1.445m-9.968 11.529c.514.426 1.228.985 1.673 1.455-.288-.078-1.549-1.11-1.824-1.377zm33.597-11.142.059.035c.342.221.864 1.316.955 1.712-.433-.258-.871-1.276-1.014-1.747m-29.292-31.831c.213-.404.757-.98 1.093-1.293l.055.131c-.39.442-.754.83-1.072 1.328zm25.866 46.264c.102.447-.558 1.38-.782 1.767l-.042-.112c.028-.476.586-1.236.824-1.656m-35.346-2.866.037.013c.109.035.206.076.302.14.327.219 1.015.793 1.085 1.18-.339-.27-1.281-.954-1.424-1.333m6.682-5.679c.391.499.883.972 1.207 1.476a6.4 6.4 0 0 1-1.195-1.256zm2.481 10.426c.44.07 1.01.524 1.318.837l-.019.166c-.458-.204-.92-.675-1.299-1.003"></path><path fill="#d5dadf" d="M99.61 64.87c.294.252.604.652.751 1.011l-.07.18c-.169-.219-.7-.942-.68-1.19"></path><path fill="#222629" d="m108.731 60.735.95.992.013.22-1.175-1.196z"></path><path fill="#d5dadf" d="m142.253 57.562.028.02c.313.249.816.872.871 1.275-.289-.306-.859-.862-.899-1.295m-36.49 11.643c.365.116.676.535.933.808-.065.03-.114.022-.184.02a5 5 0 0 1-.749-.828m18.973-17.188c.402.22.729.736 1.016 1.087-.429-.114-.799-.734-1.016-1.087m10.212 22.45c.13-.266.52-.614.789-.736-.231.352-.313.434-.625.72zM98.999 64.053c.32.203.56.43.683.795l-.062-.016c-.308-.1-.478-.512-.621-.78m8.994 5.905q.09.068.176.14c.193.163.316.28.337.534-.103-.068-.212-.136-.304-.219a.6.6 0 0 1-.209-.455"></path><path fill="#222629" d="M123.805 34.167c.346-.075.457-.113.804-.064-.143.155-.528.181-.758.207z"></path><path fill="#d5dadf" d="M123.192 51.846c.318.095.559.465.765.712-.381-.087-.565-.409-.765-.712m15.791 16.059c.088.24.034.495.007.742-.027-.05-.036-.063-.057-.111-.102-.245-.046-.403.05-.63m-36.744-15.851c-.107-.221-.143-.276-.156-.532.167.107.16.203.25.42zm11.527 20.186c.2.061.27.08.418.237-.063.026-.117.018-.184.018zm-4.522-41.614.09.028.032.127-.123.18-.059-.094z"></path><path fill="#fff" d="M91.305 29.64c-.899-2.066-3.108-4.567-4.517-6.413-1.188-1.557-3.248-2.92-2.485-5.267.526-1.334 2.527-1.202 3.596-.7 2.628 1.232 4.3 4.012 5.342 6.61.52 1.295.916 3.19-.3 4.242-.425-.05-.757-.795-1.346-.719-.038.191.046.332.178.486 2.09 2.431 3.991 5.189 5.024 8.263 1.014 3.017 1.25 7.286.655 10.436a16.3 16.3 0 0 1-.836 2.918c-3.292.283-4.092.501-6.33 3.096a9.4 9.4 0 0 0-1.831-.264c1.167-1.283 3.64-3.768 4.237-5.296-1.163.707-3.699 3.99-4.878 5.247-3.977-.02-8.422-.267-12.306.417-.64.113-1.975.633-2.724.84-.19-.283-.158-.155-.14-.481.32-.596.815-.678 1.323-1.152.144.205.271.447.487.54.184-.135.129-.057.181-.335-.076-.184-.2-.364-.116-.51.195-.338.514-.68.797-.932l.277.05.072-.107c-.361-1.096.293-.738.396-1.438-.644-.925.048-.69-.072-1.47-.145-.205-.063-.148-.313-.209-.349.152-.589.7-.717 1.048-.612 1.655-1.457 2.742-3.038 3.556-.12.069-.244.162-.357.242-.874.045-2.842-.762-3.607-1.272l.826-1.27c.741-1.024 3.085-3.004 3.091-3.747-.923-1.78-3.891 2.386-4.323 3.199-.124.06-.284.153-.416.164l.01.313-.062.047c-.092-.15-.187-.297-.265-.456-.013.272.093.416.093.743l-.144-.102c-.207-.457-.223-.623-.301-1.076-.204-1.178.55-.525.887-.962.194-.123.287-.199.458-.342-.14-.157-.493-.192-.708-.237-1.037-.22-1.937-.724-2.843-1.257l.102-.228c1.523.593 3.034.99 4.665.553.74-.199 2.634-1.622 2.315-2.487-.285-.247-1.176-.334-1.586-.398l-.716-.094.065-.152c.558.022 1.082.04 1.64.035 2.045-.179 3.86-3.121 4.212-5.044.09-.493-.855-.626-1.242-.814-2.069-1.01-4.042-2.802-5.769-4.318.353-.409 1.43-.031 1.94-.438-.131-.222-.414-.674-.32-.938l.707.156.576.108c2.728.358 4.556.441 7.076-.66-.855 1.184-3.569 5.051-2.091 6.519.303.159.946.057 1.053-.232.798-2.159 1.072-4.486 2.382-6.476.249-.378 1.352-1.878 1.327-2.2-.437-.362-2.055 1.581-2.377 1.93-2.057.564-4.563.38-6.633-.036-.031-.334.389-.65.62-.864 4.318-.262 10.225-1.735 12.377-5.916 1.132 1.305 2.873 3.295 4.703 3.532.521.54 1.494 1.608 2.019 2.018"></path><path fill="#d5dadf" d="m67.956 51.066.826-1.271c.774.72 2.171 1.809 3.138 2.3-.119.07-.243.162-.357.243-.873.045-2.841-.762-3.607-1.272m1.61-19.306.707.156c.014.26.025.552.056.81l-.444-.027c-.13-.223-.414-.674-.32-.94"></path><path fill="#fff" d="m70.273 31.916.576.109c-.03.373.03.395-.164.643l-.356.057c-.03-.257-.04-.548-.056-.809"></path><path fill="#d5dadf" d="M66.818 49.317c-.095-.26-.249-.607-.163-.864.214.255.35.645.48.96l.01.312-.062.048c-.092-.151-.187-.298-.265-.456m2.286-6.041c.558.022 1.082.041 1.64.035a7 7 0 0 1-.938.118l-.05.094-.717-.095z"></path><path fill="#222629" d="M83.829 32.403c.957.168.704.912.679 1.732.243-.22.294-.272.587-.412l.097.038c.022.519-.96 1.566-.606 2.03q.27.012.536.028l.085.099-.028.18c-.154.235-.476.361-.735.492-.266.504-.525.746-.21 1.265l.038.064c-.01.059-.056.398-.167.397-.652-.005-1.211.818-1.746 1.26-.385.318-1.033.942-1.515.971-.518-.356.376-1.41.663-1.743 1.085-1.252 1.64-2.792 1.862-4.419.1-.732.145-1.299.46-1.982m2.739-14.145c.42.022 1.37.14 1.459.627-.446.152-.635-.291-1.259-.007-.534.68.43 2.511.82 3.157l.092-.06c1.977-1.277 2.352 1.238 3.078 2.39.243.15.271.109.341.335-.043.065-.08.152-.14.162-1.24.22-1.118-2.22-2.118-2.678-.547-.25-.651.357-1.158.499-.986-.333-2.415-3.54-1.115-4.425m-6.149 29.026c1.297.11 1.956 1.925 3.027 2.48 1.074.558 1.587-.525 2.462-.792l.093.07-.027.27c-2.137 2.74-3.538.474-4.966-1.237-.232-.278-.47-.425-.59-.79"></path><path fill="#fff" d="M26.979 50.389c.003-1.885.968-3.075 1.95-4.57 2.119-3.232 4.997-5.325 8.557-6.78-.167.646-.268 1.483-.351 2.154l-.006.188.088.439-.105.18c.066.355.081.563.1.926.035.155.054.247.07.405.007.103.024.273.013.368-1.035-.13-2.46.124-3.48.335-.752.26-1.568.503-2.258.88 2.336-.495 3.115-1.082 5.856-1.003.25.55.4.916.754 1.406.145.17.338.385.47.559-.88.025-1.593.06-2.471.199-.39.074-1.126.17-1.405.427l-.105-.01-.313.2.262.05c.917-.287 3.369-.458 4.314-.267.69 0 1.308.584 1.999.872.682.285 1.818.738 2.538.81 1.034-.002 1.389-.257 2.317-.339.453-.04 1.662.308 2.249.364 2.094.203 4.397-.45 6.298.543-2.587.313-4.221.332-6.751 1.294l.022.192c2.231-.757 4.597-1.155 6.959-1.111 1.254.023 2.513.572 3.73.831 1.05.23 2.15.36 3.217.493l.162.046c.075.324.307.28.6.287 1.609-.107 2.757-.283 4.125.751-.608.023-.959.025-1.549.16l-.14.025c-1.744.774-4.204 1.798-5.19 3.506-.364.818-1.401 3.047-1.874 3.692-1.02 2.12.49 4.794.452 4.915-1.897.395-.626-1.956-2.158-1.601-.199.004-.12.026-.297-.073-.213-.333-.242-.758-.302-1.154-.03-.586-.034-.945.001-1.53.027-.647.083-1.22.15-1.864.352-.098.96-.237 1.008-.678.077-.687-.38-.977-.97-1.11-1.22-.277-2.44-.515-3.661-.762a460 460 0 0 0-9.313-1.755l-10.018-1.887c-1.826-.342-3.716-.74-5.545-1.003"></path><path fill="#d5dadf" d="M43.457 48.157c1.034-.003 1.388-.257 2.316-.34.454-.04 1.663.308 2.25.365 2.094.203 4.397-.451 6.298.543-2.587.312-4.222.331-6.751 1.294-.756.22-1.553.508-2.318.744-.556.17-1.671.452-2.131.652l-.587-.022c.4-.379.956-.613 1.47-.794.307-.15.7-.306 1.019-.444.49-.284 1.358-.703 1.893-.974l-.452-.199c-.293.052-1.036.234-1.246.073l.15-.201c-.193-.114-.315-.128-.53-.172-.223-.172-.952-.148-1.287-.158z"></path><path fill="#d5dadf" d="M45.368 48.855c.776-.032 1.842-.167 2.548-.131l.062.074c-.151.096-1.102.103-1.515.185-.293.052-1.035.234-1.245.073zm-.345 1.3.016.122c-.296.206-.667.366-1.035.323.307-.15.7-.307 1.019-.445m12.372 7.692.211.091c.092.476-.023.561.025.953-1.02 2.119.49 4.793.452 4.914-1.897.396-.626-1.956-2.158-1.6-.2.004-.12.026-.298-.074-.212-.332-.241-.758-.301-1.153-.03-.586-.034-.946.001-1.531l.29.015.153-.275.12-.006c.068.182.075.218.226.339l.167-.053c.149-.267.154-.636.182-.947l.056.043c.018.21.02.256.093.452.212-.092.346-.361.497-.576.025-.152.202-.443.284-.592"></path><path fill="#d5dadf" d="m55.617 59.462.153-.275.12-.006c.068.183.075.218.226.34l.167-.054c.149-.267.154-.635.182-.946l.056.042c.018.21.02.256.093.452.212-.091.346-.361.497-.575.05.903-.73.945-.965 1.42.233.702.164.587.104 1.332l-.098.013-.106-.09-.117.041-.243-.152c-.071.035-.262-.012-.36-.026-.03-.586-.034-.946.001-1.53z"></path><path fill="#d5dadf" d="M55.326 60.978c-.03-.586-.034-.946.001-1.53l.29.014-.183.146c.177.046.2.044.385.043-.058.326.056.632.041.956-.005.116-.138.27-.174.397-.071.035-.262-.011-.36-.026"></path><path fill="#fff" d="M55.326 60.979c.098.014.29.06.36.025l.244.153c.13.45.183.607-.005 1.048-.198.005-.12.027-.297-.073-.213-.332-.242-.758-.302-1.154"></path><path fill="#d5dadf" d="M56.448 61.132c.24.138.42.668.545.915a2 2 0 0 1-.192-.103c-.263-.168-.293-.53-.353-.812m.307-1.14c.212.23.217.732.262 1.036-.042-.03-.059-.039-.09-.076-.21-.246-.177-.66-.172-.96"></path><path fill="#fff" d="M62.259 50.757c1.608-.108 2.757-.283 4.125.751-.608.023-.959.025-1.549.16l-.14.025c-.306-.216-.935-.384-1.313-.504-.216.113-.79-.212-1.137-.247-.974-.1-2.12.306-3.067.193.904-.238 2.133-.306 3.08-.378"></path><path fill="#d5dadf" d="M63.383 51.19c.444-.152 1.156.142 1.453.48l-.14.023c-.306-.215-.936-.383-1.313-.504"></path><path fill="#fff" d="M30.959 48.96c-.113-.049-.082-.035-.178-.116.113-.876 2.895-2.566 3.875-2.353l-.313.2.263.05c-.301.176-.797.435-1.023.675-.776.495-1.628.877-2.405 1.394z"></path><path fill="#d5dadf" d="M31.178 48.81c-.014-.034-.004-.098-.002-.141.644-.516 2.356-1.45 3.168-1.978l.262.05c-.301.176-.797.435-1.023.676-.776.495-1.628.876-2.405 1.393"></path><path fill="#d5dadf" d="M34.606 46.74c.916-.285 3.368-.457 4.314-.265-.164.087-.589.298-.75.31-.774.059-4.085.75-4.587.631.226-.24.721-.5 1.023-.675"></path><path fill="#222629" d="m61.497 50.424.162.046c.075.324.307.28.6.287-.948.073-2.176.14-3.081.379-.248-.003-1.575.261-1.896.31-1.706.26-3.48.667-5.195.824 2.306-.588 4.651-.945 6.981-1.418.671-.136 1.766-.241 2.36-.408z"></path><path fill="#d5dadf" d="M57.395 57.847c.598-.8 1.267-2.27 2.11-2.649-.365.819-1.402 3.047-1.874 3.693-.048-.392.067-.477-.025-.953zM37.212 42.926c.035.155.054.247.07.405.007.103.024.273.013.368-1.035-.13-2.46.124-3.48.335.217-.343.611-.593 1.001-.693 1.064-.205 1.333-.16 2.31-.26z"></path><path fill="#d5dadf" d="M37.213 42.926c.034.155.054.247.07.405-.673-.069-1.086-.078-1.754.09-.389.097-.403.079-.713-.08 1.064-.205 1.333-.16 2.31-.26zm.954 2.39c.145.17.338.385.47.56-.88.024-1.593.06-2.471.199l-.002-.466c.582-.131 1.512-.112 2.003-.293m-3.42.703.097.134-.083.35-.105-.012c-.98-.213-3.762 1.477-3.875 2.354.096.08.065.067.178.115-.229.087-.482.293-.686.442q.06-.134.123-.265c.81-1.679 2.67-2.537 4.351-3.118"></path><path fill="#fff" d="M34.536 41.582c1.105-.29 1.461-.237 2.593-.2l.088.437-.105.18c-.381-.023-.749-.062-1.128-.102l.043-.175a77 77 0 0 1-1.49-.14"></path><path fill="#222629" d="M36.028 41.723c.307.026.903.094 1.19.097l-.105.18c-.382-.024-.75-.063-1.129-.102z"></path><path fill="#d5dadf" d="M35.984 41.897c-.546-.051-1.358-.001-1.828-.266l.045-.112c.815-.334 2.063-.368 2.934-.326l-.006.189c-1.131-.036-1.488-.089-2.592.2q.744.078 1.49.14z"></path><path fill="#222629" d="m47.57 50.02.021.19c-1.475.47-2.816.904-4.32 1.277l-.15-.071c.46-.2 1.575-.482 2.13-.652.765-.236 1.562-.524 2.318-.745"></path><path fill="#d5dadf" d="M34.748 46.018c.389-.177.99-.303 1.417-.41l.001.466c-.39.075-1.125.17-1.404.428l.083-.35zm8.802 2.506c.336.01 1.065-.014 1.287.158-.276.067-1.245.16-1.422-.039zm-1.016 2.87.586.022.151.07c-.515.068-1.178.243-1.698.366.285-.184.646-.323.961-.458m18.512.067c.077-.004.061-.012.119.009.563.209 1.131.362 1.688.597-.544-.03-1.112-.254-1.616-.452l-1.196.292c-.685.13-1.87.083-2.559-.077 1.246-.114 2.328-.044 3.563-.369m-18.909-2.844c.29-.035.573-.004.864.022l-.018.035c-1.179.15-2.27.43-3.413.74-.265.061-.532.108-.8.153.56-.467 2.593-.779 3.367-.95m16.595 3.543c.054-.006.022-.008.09.038-.885.47-2.858.222-3.855.148l-.109-.084c.172-.121.67-.033.898-.017.995.068 1.985.015 2.976-.084m-7.208-2.5c1.13.007 2.696.871 3.746 1.313-.74.012-3.019-.99-3.746-1.313m1.17-.318c.736.019 2.636.936 3.296 1.306-.95-.068-2.468-.815-3.296-1.306m1.58.083.051.004q.043.006.085.009c.663.024 2.095.912 2.847 1.183l.013.027-.063.079c-.942-.106-2.085-.869-2.934-1.302m-2.865.886c.805.038 2.199.634 2.962.967-1.013-.088-2.07-.492-2.962-.968m10.254.877.153-.068c.388.07 1.308.199 1.542.503l-.137.035c-.35-.104-1.334-.254-1.558-.47m-31.597-4.955.063.053c-.351.4-.903.76-1.415 1.342-.058-.069-.03-.047-.018-.19.381-.546.81-.865 1.37-1.205m26.551 3.756c.45-.085 1.618.332 2.013.568-.579.117-1.465-.351-2.013-.568m-19.063-.166c.061 0 .112.03.168.054-.295.256-.954.413-1.334.552l-.096.035-.01-.093c.41-.233.83-.39 1.272-.548"></path><path fill="#fff" d="M9.515 55.889c3.198.773 6.403 1.377 9.624 2.035l18.675 3.813c-.375 1.237-.62 2.471-.656 3.767-.014.484.323 2.242.158 2.523A1205 1205 0 0 0 18.134 64.3q-3.072-.569-6.13-1.203c-.934-.194-1.99-.314-2.869-.677a1.3 1.3 0 0 1-.285-.466c-.621-1.658-.063-4.49.665-6.065"></path><path fill="#222629" d="M11.306 61.51c.734.007 19.714 3.898 20.185 4.128l-.038-.004c-1.707-.213-19.68-3.705-20.011-3.949-.046-.033-.1-.128-.136-.175m10.627-.633c-.55-.168-2.097-.418-2.716-.535l-5.757-1.085c-.717-.136-2.515-.45-3.083-.775.373-.185 10.476 1.973 11.629 2.209zm4.845-.512c.076-.011.155-.02.232-.017 1.197.047 2.562.474 3.748.722 1.482.309 3.063.532 4.506.975.227.07.42.142.582.321-1.368-.14-2.774-.53-4.125-.804-1.395-.283-2.855-.485-4.221-.875a3 3 0 0 1-.722-.322m-6.573 1.945c-1.26-.147-9.07-1.61-9.842-1.972.541-.19 2.743.378 3.398.507l6.986 1.397z"></path><path fill="#222629" d="M22.006 60.691c1.86.347 3.877.735 5.704 1.19-1.195-.08-4.458-.754-5.776-1.004zm10.38 1.569c.906.162 2.651.436 3.438.723l.033.086.135-.003-.087-.052.072.07c-.68-.017-2.908-.522-3.698-.688zm-11.638-.017c.663.105 1.149.225 1.801.394-.306.033-2.006-.229-2.344-.327z"></path><path fill="#d5dadf" d="M32.28 62.397c-.224-.06-.324-.073-.504-.229.212-.063.365.026.61.092z"></path><path fill="#fff" d="M68.754 55.07c.499-.417 1.208-.29 1.796-.195 7.43.428 15.096 3.064 20.01 8.859.167.196.305.325.365.586-.117.455-.794.45-1 .304-1.132-.812-2.833-2.094-3.928-2.878-1.778-1.274-3.12-2.384-5.283-2.901-.29-.073-.743-.217-1.033-.171l-.084.085c.029.135.012.178.133.257.93.605 2.127.875 3.111 1.407.908.491 6.297 4.315 6.458 5.015.027.117-.028.17-.082.27-1.905 1.397-5.309-1.877-6.99-2.734-.942-.48-4.266-2.05-5.174-1.821l-.084.133c.083.229.275.336.52.428 2.384.902 5.696 2.19 7.348 4.278l.03.181c-.817 1.08-4.969-.851-6.11-1.234a12.5 12.5 0 0 0-2.267-.544c-3.53-.541-7.12.8-10.371-.329-.452-.167-.902-.409-1.385-.59-.685-.348-.184-3.001.023-3.665.714-2.282 1.902-3.624 3.997-4.74"></path><path fill="#d5dadf" d="M64.735 63.477c-.686-.348-.185-3.002.022-3.665.714-2.283 1.902-3.624 3.997-4.74-.312.345-.508.616-.786.984-1.512 2.089-1.47 2.61-2.232 4.836-.22.06-.42-.01-.64-.063-.02.633.028 1.795-.097 2.348-.107.246-.036.168-.264.3"></path><path fill="#d5dadf" d="M65.736 60.892c-.284-.68 1.337-4.418 2.232-4.836-1.512 2.088-1.47 2.609-2.232 4.836M65 63.177c-.204-.32-.097-2.524.083-2.877.098.288.069.206.013.529-.02.632.028 1.794-.096 2.348"></path><path fill="#fff" d="M68.754 55.07c.499-.417 1.208-.29 1.796-.195-.403.016-.582 0-.938.204-1.81 1.802-1.726 2.136-2.876 4.266-.754 1.135-.662 3.349-.618 4.721-.451-.167-.901-.409-1.384-.59.23-.132.158-.053.265-.3.125-.553.077-1.715.097-2.347.22.053.42.123.64.063.762-2.227.72-2.747 2.232-4.836.278-.368.473-.64.786-.985"></path><path fill="#d5dadf" d="M66.736 59.345c.036-1.023 1.818-3.75 2.694-4.32l.182.054c-1.81 1.802-1.725 2.137-2.876 4.266"></path><path fill="#fff" d="M91.538 64.684c.063-.5.03-.593-.134-1.068 1.054.415 2.665 1.086 3.558 1.745l.222.166c1.554 1.16 2.438 1.44 4.165 2.208.448.2 1.33.77 1.775 1.055.846.482 1.511.913 2.311 1.47-.074.11-.306.482-.393.537-.506 1.053-1.781 2.936-2.452 4.176-4.62-1.133-9.225-2.46-13.854-3.554-7.117-1.682-14.534-3.699-21.675-1.113 1.283-1.247 3.882-3.202 5.358-4.34.306-.255.764-.614 1.043-.877 1.997-.154 2.917-.234 4.925.035 1.896.254 5.973 2.343 7.436 2.041.074-.018.25-.019.336-.022 1.106-.14 1.176-.315 1.43-1.232 1.126.191 1.304.942 2.864.738.449-.06.697-.151 1.031-.45l.248-.145c.047-.1.19-.641.23-.783l.176-.015c.715-.091.85-.088 1.4-.572"></path><path fill="url(#sleep_svg__h)" d="M91.538 64.684c.063-.5.03-.593-.134-1.068 1.053.415 2.665 1.086 3.558 1.745l.221.166c1.555 1.16 2.438 1.44 4.166 2.208.448.2 1.33.77 1.775 1.055l-.203.19c-.267-.046-1.259-.383-1.577-.479a148 148 0 0 0-3.275-.91c-1.396-.362-2.89-.648-4.292-1.009-.558-.143-1.562-.321-2.046-.528.048-.1.19-.641.232-.783l.175-.015c.714-.091.85-.088 1.4-.572"></path><path fill="#d5dadf" d="M91.539 64.684c.063-.5.029-.593-.135-1.068 1.054.415 2.665 1.086 3.558 1.745l.222.166c-.689.023-1.984-.328-2.696-.503-.284-.075-.74-.16-.95-.34"></path><path fill="#222629" d="M91.538 64.685c.805-.055 2.572.635 3.424.677l.221.166c-.688.023-1.983-.329-2.695-.504-.284-.074-.74-.16-.95-.34"></path><path fill="#fff" d="M90.139 65.257c.714-.092.849-.089 1.4-.572.21.179.665.264.95.34l-.45.671c-.555-.141-1.222-.302-1.788-.285z"></path><path fill="#222629" d="M90.25 65.41c.567-.016 1.233.145 1.788.286 1.097.295 2.909.86 3.957 1.074l-.114.147c-1.773-.474-3.912-.964-5.631-1.507"></path><path fill="#d5dadf" d="M95.995 66.77c.372.141.629.239.987.423l-1.101-.275zm-24.533-1.681c1.997-.154 2.917-.234 4.925.035 1.896.254 5.973 2.343 7.436 2.041.345.22.738.337 1.139.42-2.084.413-3.16-.042-5.262-.459-.205-.204-.403-.433-.67-.535l-1.148-.17c-.868-.289-4.592-.434-5.626-.456-.733.106-1.11.067-1.837 0 .306-.254.765-.613 1.043-.876"></path><path fill="#222629" d="m72.256 65.966.072-.158c.703-.26 4.675.248 5.547.432l.008.181c-.87-.289-4.593-.434-5.627-.456"></path><path fill="#222629" d="M77.875 66.24c.302.045 1.251.157 1.463.283l-.308.068-1.148-.17z"></path><path fill="#fff" d="M84.16 67.144c1.105-.141 1.175-.316 1.43-1.233 1.125.192 1.303.942 2.863.738l-.088.167-.174.045c.168.172.74.255 1 .288-.757.54-1.514.169-1.696.7-.42-.058-3.044-.585-3.336-.705"></path><path fill="#222629" d="M83.823 67.165c.074-.018.25-.019.337-.021.292.12 2.915.647 3.336.704 2.978.788 5.936 1.014 8.773 2.21.688.291 2.987.683 3.492 1.123-.346.108-5.994-1.857-6.935-2.001-2.584-.398-5.263-1.167-7.864-1.596-.4-.082-.794-.198-1.139-.419m4.542-.349c1.274.16 2.392.525 3.626.76 1.952.372 3.695.921 5.55 1.619.665.25 2.218.52 2.74.944-1.427-.092-3.755-1.24-5.18-1.579-1.856-.44-4.051-1.118-5.91-1.41-.26-.034-.832-.116-1-.29zm1.119-.617.248-.144c.483.206 1.488.384 2.045.527 1.403.362 2.896.647 4.292 1.01q1.643.436 3.275.91c.318.095 1.31.432 1.577.48.205.075.346.1.468.274-.41.044-.672-.139-1.109-.15-.518-.309-1.573-.574-2.184-.758-2.804-.847-5.796-1.371-8.612-2.15"></path><path fill="#d5dadf" d="M101.124 68.79a28 28 0 0 1 2.311 1.47c-.074.11-.306.482-.393.537l-.069-.07a1.8 1.8 0 0 1 .139-.383c-.837-1.265-2.425-.678-2.833-1.238.438.01.699.194 1.11.15-.122-.175-.263-.199-.468-.275z"></path><path fill="#222629" d="M75.968 67.716a2 2 0 0 1 .369-.02c1.916.08 3.836.54 5.713.902.936.181 1.886.292 2.817.492 2.53.541 5.028 1.362 7.527 2.021.906.239 5.617 1.232 6.138 1.576.053.035.115.127.16.176-.985-.013-2.811-.707-3.84-.98-.956-.253-1.926-.448-2.882-.7-.66-.176-1.3-.42-1.959-.602-.76-.21-1.542-.35-2.31-.537-.797-.194-1.58-.441-2.38-.63-2.213-.52-4.51-.926-6.755-1.304-.83-.14-1.81-.108-2.598-.394m7.603.491c1.188-.195 9.08 2.108 10.774 2.534.984.247 2 .364 2.977.64.636.179 1.312.38 1.89.704-.728.057-2.154-.605-2.926-.78-.805-.181-1.62-.322-2.418-.527-.802-.206-1.586-.479-2.39-.677-1.685-.416-3.373-.785-5.056-1.224-.905-.236-1.998-.34-2.85-.67m-11.589-1.639c2.135-.09 4.191.086 6.291.472.3.055.86.083 1.095.277l-.212-.006c-1.115-.044-2.23-.369-3.354-.452a27 27 0 0 0-2.082-.086c-.67.002-1.431.09-2.086-.038l.001-.088zm1.059.995c.794-.008 1.795-.134 2.558.082-.087.03-.185.074-.276.077-.847.031-1.7.028-2.546.043-.78.004-1.974.213-2.708.001l.024-.053c.96-.144 1.977-.125 2.948-.15"></path><path fill="#fff" d="m8.839 66.453.012-.573.131-.087c5.59.72 16.936 1.935 22.069 2.679q2.155.323 4.3.706c.757.13 2.18.42 2.89.388.12-.074.447-.27.572-.273 1.285-.024 3.038.293 4.316.457.379 1.594.37 2.78.139 4.395L8.82 70.263c.07-.724.137-1.369.143-2.1l.132-.194c-.163-.201-.186-1.084-.216-1.42z"></path><path fill="#fff" d="m8.838 66.453.013-.573.13-.087c5.59.72 16.937 1.935 22.07 2.679q2.154.323 4.3.706c.756.13 2.18.42 2.89.388l-.03.064c-.197.432-.568.842-.54 1.235-.349.02-1.568-.15-1.956-.197a354 354 0 0 1-4.68-.602c-1.128-.145-3.299-.297-4.277-.542l-.034-.008-.06.181c-1.139.181-5.595-.504-6.979-.622-.48-.042-1.75-.282-2.174-.205l-.03.205a32 32 0 0 0-1.734-.233c-1.628-.275-3.272-.424-4.905-.67-.576-.086-1.165-.191-1.748-.203-.163-.201-.186-1.084-.216-1.42z"></path><path fill="#222629" d="M8.838 66.453c.806-.177 3.801.29 4.758.415 4.756.623 9.584 1.052 14.297 1.886.234.041.524.04.759.041-.32.199-4.09-.402-4.758-.478l-12.668-1.455c-.644-.076-1.762-.28-2.348-.313zm1.079.999c.848-.083 6.043.455 6.663.794-.446.144-5.962-.6-6.663-.794m16.748 2.245.06-.181.034.008c.978.245 3.15.397 4.276.542q2.34.316 4.68.602c.389.047 1.608.217 1.956.197l.114.072.013.097c-.619.06-2.145-.164-2.837-.25l-6.053-.778c-.694-.087-1.589-.274-2.243-.309m-17.57-1.728c.582.012 1.172.117 1.747.203 1.633.246 3.277.395 4.906.67l.004.17c-2.193-.325-4.542-.534-6.79-.849zm6.653.873q.87.093 1.734.233l.113.055c-.375.092-1.419-.055-1.843-.118zm-2.243.927c.303.137 4.061.452 4.635.52 3.845.448 7.675 1.069 11.513 1.577 1.684.223 8.467.824 9.52 1.34-1.56-.084-3.409-.437-4.993-.633a664 664 0 0 1-14.893-1.919c-1.093-.145-4.973-.491-5.782-.885m17.839 1.124q.107-.007.214 0c2.17.168 4.382.513 6.544.793 1.153.15 2.443.212 3.565.5a.6.6 0 0 1 .333.207c-.843.074-9.791-1.135-10.656-1.5m-18.579-1.64c3.484.21 6.935.74 10.395 1.158l.029.107c-.826 0-1.665-.183-2.485-.275-1.849-.21-3.701-.425-5.553-.605-.355-.034-1.626.009-1.858-.153-.156-.11-.35-.165-.528-.232"></path><path fill="#fff" d="M54.891 57.755c.133.236-.163 1.945-.16 2.401.007.817.18 1.567.412 2.345a502 502 0 0 1-16.94 5.424c-.101.011-.133-.013-.226-.051-.54-1.463-.148-4.539.387-6.021 1.695-.22 3.417-.782 5.081-1.186q5.737-1.398 11.446-2.912"></path><path fill="#222629" d="M41.297 65.955c2.863-1.004 5.842-1.895 8.732-2.838 1.243-.406 3.23-1.157 4.42-1.4-.947.633-2.913 1.158-4.064 1.524l-5.845 1.906c-.837.266-2.365.67-3.071.946zm8.495-5.275.123.018-.01.082c-.755.428-1.895.597-2.748.849-2.583.763-5.183 1.648-7.815 2.208-.085 0-.092-.012-.163-.05 1.039-.497 2.405-.763 3.518-1.081zm3.54-1.878.17-.024.065.086c-.469.474-7.986 2.497-9.263 2.808l-.117.023c.164-.207 8.178-2.579 9.145-2.893m-.602 2.771c.09-.002.155.026.239.053-.301.38-5.889 1.945-6.793 2.17-.071.005-.13-.01-.2-.022.308-.237 5.865-1.925 6.754-2.2M43.3 63.56l-.04.083c-.974.538-3.884 1.289-5.053 1.5-.017-.077 0-.098.023-.17 1.647-.56 3.385-.983 5.07-1.413m-1.832 2.533c-.265.092-.4.156-.682.151.115-.171.287-.195.51-.289z"></path><path fill="#fff" d="M59.392 56.175c.146-.33.451-1.021.686-1.29 1.253-1.434 4.137-3.069 6.04-3.153.663-.03 6.632 1.197 6.088 2.361-.33.21-.53.154-.949.116l-.162-.141.019.13-.17-.051c.225-.17.38-.105.498-.322-.664-.582-2.277.41-2.96.725-3.047 1.403-4.662 4.405-4.74 7.69.01 1.93.19 1.879 1.963 2.295-2.69.804-5.006-.293-7.515-1.355-.504-.212-.514-2.29-.536-2.862-.027-.81.063-.917.45-1.605.444-.83.82-1.74 1.288-2.538"></path><path fill="url(#sleep_svg__i)" d="M57.653 60.317c.568.072.243.403.826.342.396.164 1.017.248 1.206.54l-.108.283.087.039c.187.042.23.043.392.139 1.645.516 2.155.389 3.518.685l.168-.105c.009 1.93.189 1.878 1.963 2.295-2.691.804-5.006-.293-7.516-1.355-.503-.213-.514-2.29-.536-2.863"></path><path fill="#d5dadf" d="M60.056 61.66c1.645.517 2.155.389 3.518.686l-.172.094c-1.426-.025-2-.041-3.315-.61zm-.391-.139c.146.166.166.193.252.395-.285.007-.852-.559-1.14-.533q.016.174.028.348c-.176-.093-.292-.341-.405-.524.38.029.924.016 1.178.275zm-1.268.611c.558.043 1.23.31 1.798.424l-.025-.029c.655.205 1.353.443 1.83.96l.03.145c-.36-.188-.651-.434-1.043-.573-.93-.332-1.769-.291-2.59-.927m3.689 1.535c.508.113 1.039.429 1.438.756-.562-.156-.987-.396-1.438-.756m.392-.692c.24.1.46.184.652.364l-.078.014c-.193-.016-.366.03-.556-.029a1 1 0 0 0-.012-.312z"></path><path fill="#fff" d="M58.105 58.713c.192.183.194.292.245.546l.11.009.05-.058c-.067.91-.338.399-.03 1.45-.584.06-.259-.271-.826-.342-.027-.81.063-.917.45-1.605"></path><path fill="#d5dadf" d="M58.105 58.713c.443-.83.82-1.74 1.287-2.538.072.67-.662 2.294-.882 3.035l-.05.057-.11-.008c-.052-.255-.053-.363-.245-.547m6.84-6.499c.403.04 4.552 1.111 4.809 1.253-.74.095-4.237-.859-4.809-1.253m-5.9 7.395c.457.025 3.318.857 3.977 1.043-1.135.14-3.015-.447-3.977-1.043m4.837-6.253c1.204.06 3.197.328 4.31.769-.894.012-3.539-.413-4.31-.77m-3.747 3.825c.533.004 3.518.557 4.02.777-.92.098-3.218-.377-4.02-.777m-.231 3.921c.453.052 1.165.065 1.536.33l-.076.023c-.454.117-1.074-.13-1.46-.352m4.361-8.481c.548-.09 1.212.137 1.697.376l-.057.001c-.525.016-1.152-.188-1.64-.377m-2.453 8.813c.553.027 1.095.111 1.643.193-.528.034-1.213.182-1.643-.193"></path><path fill="#fff" d="M88.874 59.037v-.151a9.96 9.96 0 0 1 3.029-7.06c1.784-1.715 3.817-1.697 6.184-1.643l-.721.732c-.828 1.102-1.206 2.122-1.893 3.196-1.92 2.998-2.105 5.537-1.332 9.013.088.411.274.865.423 1.264-1.773-.99-4.362-1.606-5.263-3.36-.294-.774-.4-1.162-.427-1.99"></path><path fill="#fff" d="M88.873 59.037c.066.093.18.265.255.34 1.097.234 2.963.926 3.953 1.011l.146-.081c.176.556.066 1.27.212 1.881l-.082.213.234.141.027.153-.021.027q.274.197.544.401c.088.412.274.866.423 1.265-1.774-.99-4.362-1.606-5.263-3.36-.294-.774-.4-1.163-.428-1.99"></path><path fill="#d5dadf" d="M89.3 61.028c.317.044 1.31.156 1.47.414.715.249 1.96.773 2.587.959l.234.14.027.154-.021.027q.274.197.544.401c.088.412.274.866.423 1.265-1.774-.99-4.362-1.606-5.263-3.36"></path><path fill="#d5dadf" d="M90.77 61.442c.716.25 1.96.773 2.587.959l.234.141.027.153-.02.027c-.82-.335-2.396-.68-2.829-1.28m-1.641-2.064c1.097.233 2.963.925 3.953 1.01l.146-.081c.176.556.066 1.27.213 1.881-.826-.849-4.078-1.205-4.086-2.2.23.24 1.687 1.031 1.995 1.041l-.01-.31c.294.111.539.766 1.12.649.2-.04.418.273.74.27.087-.266-.055-.984-.326-1.071-1.212-.391-2.588-.57-3.754-1.114z"></path><path fill="#d5dadf" d="m93.119 58.593.17-.015c.162-.226.443-2.387.546-2.843.286-1.276 2.325-4.526 3.53-4.82-.828 1.101-1.205 2.122-1.893 3.195-1.92 2.998-2.104 5.537-1.332 9.013q-.27-.204-.543-.401l.02-.027-.026-.154-.234-.14.082-.213c-.146-.612-.036-1.325-.212-1.882l-.146.082c.063-.278.225-1.43.09-1.637z"></path><path fill="#d5dadf" d="M93.173 58.752c-1.007-.297-2.174-.586-3.036-1.166l.136-.008-.12.039.033.029.087-.064c.73.212 2.039.739 2.847 1.011z"></path><path fill="#fff" d="M64.652 70.929a24.7 24.7 0 0 1 8.02-1.338c2.938-.005 6.302.664 9.177 1.257 6.346 1.309 12.578 3.206 18.885 4.668.098.022.23.19.281.271l.013.145c-.823.437-20.136-3.712-22.265-3.715-.267 0-1.367-.155-1.772-.182-3.09-.208-8.2-.747-11.154.203l-.54-.607-.173-.182c-.17-.258-.24-.313-.472-.52"></path><path fill="#222629" d="M65.124 71.45c4.08-1.538 10.332-.843 14.579-.16.95.152 3.354.526 4.168.809l.077.093c-5.39-1.27-13.244-1.898-18.652-.561z"></path><path fill="#fff" d="M72.93 54.253c4.171-1.411 6.608-1.288 10.894-1.202q2.769.039 5.536.04l.51.092.028.093c-.657 1.146-.925 1.82-1.276 3.116-.119.635-.249 1.273-.31 1.915-.008.767.007 1.197.094 1.958-.893-.458-2.63-1.686-3.683-2.304-.441-.213-.81-.42-1.234-.662-.412-.08-1.792-.758-2.264-.953-2.677-1.103-5.482-1.54-8.295-2.093"></path><path fill="#d5dadf" d="M84.723 57.96c.308.002 1.176-.023 1.414.073l1.327.142c.406-.096.459.012.847.132-.007.768.008 1.197.094 1.958-.892-.458-2.629-1.685-3.682-2.304"></path><path fill="#d5dadf" d="m86.137 58.033 1.326.142c-.378.12-.971.08-1.342-.06z"></path><path fill="#fff" d="m88.302 55.725.159.18c.065.175.11.308.16.488-.118.634-.248 1.272-.31 1.914-.388-.12-.44-.228-.847-.132l-1.326-.142c-.24-.096-1.107-.071-1.415-.072-.441-.213-.81-.42-1.234-.662.215-.033.542-.108.731.01 1.266.193 1.989.273 3.293.28l.229-.02.097-.134z"></path><path fill="#d5dadf" d="M84.22 57.31c1.266.191 1.988.272 3.293.28l.084.085c-.48.225-2.985-.04-3.449-.309zm4.082-1.585.158.18c-.246.544-.341 1.482-.512 1.66l-.11-.13z"></path><path fill="#d5dadf" d="m89.36 53.09.51.093.028.093c-.658 1.146-.926 1.82-1.277 3.116a6 6 0 0 0-.161-.487l-.158-.18.009-.042c.18-.774.557-1.955 1.273-2.38l.06-.035z"></path><path fill="#fff" d="M43.872 70.367c-.172-.184-.178-.234-.241-.47.067-.168.084-.234.263-.32 3.686-1.783 7.356-3.606 11.108-5.252.252-.111.483-.19.753-.249.57.44.33 2.462.225 3.14-1.009.697-2.356 1.423-3.443 2.028l-5.555 3.085c-.993.551-2.246 1.202-3.187 1.8.21-1 .222-1.52.17-2.562-.016-.315-.132-.868-.002-1.094z"></path><path fill="#222629" d="M43.872 70.367c.817-.42 2.33-1.145 3.183-1.445l.033.05.178-.097c-.408.324-2.77 1.459-3.303 1.598zm11.574-4.621.038.056c-.292.517-8.383 4.843-9.608 5.468l-.013-.005-.024-.067c1.15-.739 2.393-1.34 3.57-2.035 1.983-1.169 3.939-2.462 6.037-3.417m-4.182 3.014-.025.133c-1.642 1.159-4.077 2.546-5.893 3.418l.024-.108c1.823-1.237 3.912-2.486 5.894-3.442m-2.054-.381-.034.228a80 80 0 0 1-3.756 1.868l-.135-.163c1.243-.671 2.643-1.317 3.925-1.932m6.293-1.917.056.083c-.212.34-1.296.771-1.69.984l-.054-.03c.158-.367 1.298-.836 1.688-1.037"></path><path fill="#222629" d="M50.494 67.72c-.4.39-.818.638-1.318.887l.033-.226c.45-.262.816-.439 1.285-.66m-5.209 2.593.135.163a8.5 8.5 0 0 1-1.273.53c.38-.25.746-.464 1.138-.694"></path><path fill="#fff" d="M57.395 65.05c.003-.377-.063-.367.134-.569.773-.192.649.002 1.507-.293l.051-.018c1.638.733 2.86 1.008 4.592 1.403l.163-.052c.826-.086 1.674-.314 2.4-.728 1.803.44 2.383.445 4.226.353-.416.344-1.727 1.454-2.139 1.682-1.54 1.258-2.88 2.238-4.273 3.675-2.26-2.118-3.693-2.686-6.758-3.023.082-.48.095-.773.115-1.256l-.033-.117.022-.445c-.012-.168-.006-.437-.007-.613"></path><path fill="#fff" d="M66.242 64.794c1.803.439 2.383.445 4.226.352-.416.344-1.727 1.455-2.14 1.683-.316-.274-1.824-.477-2.314-.554l-.143.117-.063.1c-.181.034-.942-.338-1.198-.446a4.3 4.3 0 0 1-.931-.473l.163-.052c.826-.086 1.674-.313 2.4-.727"></path><path fill="#222629" d="m63.679 65.573.163-.051c.767.368 1.176.351 2.029.87l-.063.1c-.181.035-.942-.338-1.198-.445a4.3 4.3 0 0 1-.931-.474m1.908-.32c.55.095.974.254 1.37.657-.421-.024-1.065-.365-1.37-.657"></path><path fill="#d5dadf" d="M57.395 65.05c.003-.377-.063-.367.134-.569.773-.192.649.002 1.507-.293l.051-.018c1.637.733 2.86 1.008 4.592 1.403.378.24.515.31.932.473-.79.14-1.12-.19-1.605.223a23.3 23.3 0 0 0-5.611-1.22"></path><path fill="#222629" d="M57.395 65.05c1.914.174 3.798.584 5.611 1.22.376.174 1.702.736 1.847 1.025-.647-.22-1.539-.693-2.103-.885-.852-.29-4.578-1.384-5.256-1.068l-.092.32c-.012-.167-.006-.437-.007-.612m-.015 1.057c1.674-.135 4.7.879 6.167 1.841.038.025.057.058.083.095-.28.025-1.809-.794-2.279-.96-.917-.326-3.005-.925-3.938-.859z"></path><path fill="#fff" d="M106.717 39.117c.399.871.702 1.867 1.127 2.794.405.642.851 1.335 1.376 1.889l.454.342.363.226.206.088.537.18c.115.34.705 2.175.852 2.404-.249.732 1.055 3.209.737 3.5l-.249-.094-.085.176c-.135.016-.502.014-.655.018l-.015-.054c-.448-.105-.343-.522-.29-.875l-.036-.246c-.246-.23-.213-.166-.591-.244-.467-.135-.809-.422-1.172-.724-.208-.197-.308-.355-.471-.588-.107-.162-.244-.419-.344-.594-1.099-1.831-1.684-6.014-1.744-8.198"></path><path fill="#d5dadf" d="M106.717 39.117c.399.871.702 1.867 1.127 2.794-.144.145-.23.19-.212.43.131 1.732 1.108 3.223.829 4.974-1.099-1.831-1.684-6.014-1.744-8.198"></path><path fill="url(#sleep_svg__j)" d="m110.606 47.938.095-.04c.35.322.887 2.015 1.136 2.602-.204.059-.26.075-.472.085-.448-.104-.343-.522-.29-.875l-.036-.246c-.246-.23-.212-.165-.591-.243l.038-.186c-.005-.435.046-.675.12-1.097"></path><path fill="#d5dadf" d="M110.606 47.938c-.087-.233-.178-.399-.089-.632l.156-.095c.264.066.318.135.511.314.052.254-.043.511-.036.535.215.719.737 1.722.972 2.386l-.085.175c-.135.016-.502.015-.654.018l-.016-.054c.212-.01.268-.026.473-.084-.249-.588-.787-2.28-1.137-2.603zm-.685-.715c.093.305.442 1.654.565 1.813l-.038.185c-.467-.135-.809-.422-1.173-.724.062-.235.098-.282.225-.482l.053.184c.106-.092.105-.25.141-.418z"></path><path fill="#d5dadf" d="m108.805 47.908.233-.167c.079-.522-.631-2.914-.761-3.685l.021-.011c.603 1.318.692 2.558 1.203 3.97-.127.2-.163.246-.225.482-.207-.198-.308-.356-.471-.589m1.232-3.54.206.088c-.027.556.488 1.534.529 2.028l-.082-.007c-.369-.658-.494-1.376-.653-2.109m-.816-.568.453.342-.084.058c-.046.21.359 1.476.45 1.847-.313-.445-.645-1.677-.819-2.247m.474 3.98c-.059-.28-.199-.92-.081-1.17.181.143.228.382.308.612z"></path><path fill="#fff" d="M68.967 72.126c8.528-.553 18.18 1.935 26.564 3.393 1.113.194 5.807.814 6.472 1.188-.372.24-2.065-.196-2.51-.272-1.244-.166-2.481-.427-3.72-.633l-8.25-1.34C80.766 73.4 73.138 72.61 66.291 72.8c-.15-.107-.198-.185-.255-.359l.075-.083a44 44 0 0 1 2.856-.233m-11.893-4.159c1.958.155 3.505.557 5.126 1.706.429.303 1.17.796 1.382 1.277l-.04.144c-.218.071-.253.086-.48.064l-.103.15c-.15.143-.307.3-.469.428l-.138.075-.557.477c-2.376-1.839-5.275-2.357-8.186-2.012l1.545-.965.264-.129c.669-.401 1.124-.638 1.656-1.215"></path><path fill="#fff" d="m55.154 69.31.264-.128.072.018c.428.106 1.264.14 1.75.199 2.267.274 3.541.836 5.25 2.337l-.138.074-.557.477c-2.376-1.838-5.275-2.357-8.186-2.011z"></path><path fill="#222629" d="m55.153 69.31.264-.128.072.018c.428.106 1.265.14 1.75.199 2.267.274 3.542.836 5.25 2.337l-.138.074c-1.612-1.263-2.887-1.94-4.982-2.229-.584-.08-1.62-.09-2.154-.251zm7.806 1.997c-1.123-.884-1.973-1.438-3.312-1.993-.484-.2-1.19-.435-1.623-.672l-.021-.107c2.007.604 3.443 1.237 5.06 2.621z"></path><path fill="#fff" d="M98.957 12.648c2.586-.626 5.813-1.553 8.148-.036 1.379.896 2.392 2.102 3.094 3.573-.52.05-1.037.091-1.551.181-3.214-3.287-5.991-3.012-10.175-3.413.142-.13.265-.134.456-.174z"></path><path fill="#d5dadf" d="M110.118 38.884c.566 2.054 1.081 4.065 1.938 6.015.952 2.165 2.331 4.59 3.135 6.791-1.266-.645-1.732-.881-3.156-1.068l.085-.176.249.095c.318-.292-.986-2.77-.737-3.501-.147-.23-.737-2.064-.852-2.404l.405-.066.043-.09-.291-.1c-.046-.333-1.083-4.874-1.206-5.127.139-.202.164-.254.387-.37"></path><path fill="#d5dadf" d="m110.78 44.636.405-.066c-.263.735.663 1.865.447 2.47-.147-.23-.737-2.065-.852-2.404m2.58 5.477.098-.022.246.271-.013.111-.048.094c-.162-.114-.209-.277-.283-.454"></path><path fill="#fff" d="m40.207 37.872.817-.29c-.02 1.312.012 2.459-.252 3.748l-.11 1.218-.066.27.019.325c-.5-.087-1.649-1.16-2.852-1.148l-.086-.451.029-.18c.227-.923.311-1.724.594-2.701l1.514-.624z"></path><path fill="#fff" d="m40.207 37.872.817-.29c-.02 1.312.012 2.459-.252 3.748l-.237-.193.02-.178c-.269-.86-.186-1.992-.198-2.911z"></path><path fill="#d5dadf" d="M40.358 38.048c.208.231.28 2.574.197 2.911-.268-.86-.185-1.992-.197-2.911"></path><path fill="#fff" d="m39.815 38.04.392-.168.15.176c.012.92-.07 2.051.198 2.912l-.02.178.237.193-.11 1.217c-.251-.243-.276-.295-.435-.609.079-.293-.257-2.784-.31-3.335z"></path><path fill="#d5dadf" d="M37.677 41.544c.898.117 1.539.583 1.943.63.442.099.692.576.976.645l.019.325c-.5-.088-1.649-1.16-2.852-1.149zm2.24-2.94c.053.55.389 3.041.31 3.335-.376-.803-.496-2.481-.31-3.336"></path><path fill="#222629" d="M37.706 41.365a4.4 4.4 0 0 1 1.914.81c-.404-.048-1.045-.514-1.943-.63z"></path><path fill="#fff" d="M103.847 70.534c.341.189.558.318.875.543l.243.11c.29.166.351.13.438.374-.526 1.082-2.319 3.913-3.008 4.99l-.587-.518-.162-.189-.537-.672c.622-1.277 1.437-2.557 2.199-3.76z"></path><path fill="#fff" d="M103.847 70.534c.341.189.558.318.875.543-.154.247-.359.556-.498.803-.478.744-2.086 3.495-2.578 3.965l-.537-.673c.622-1.277 1.437-2.557 2.199-3.76z"></path><path fill="#fff" d="M103.847 70.534c.341.189.558.318.875.543-.154.247-.359.556-.498.803-.332-.348-.448-.393-.916-.467z"></path><path fill="#222629" d="m104.723 71.077.243.111c-1.015 1.6-2.205 3.219-3.158 4.846l-.162-.189c.492-.47 2.101-3.22 2.579-3.964.139-.248.344-.557.498-.804"></path><path fill="#d5dadf" d="M67.113 50.369c-.887-.498-1.96-.928-2.813-1.396-1.465-.802-3.65-3.253-4.544-4.677 1.624 1.536 3.542 3.156 5.843 3.591.546.104 1.174 0 1.71.03l.044.002c-.337.437-1.092-.216-.888.962.079.453.095.62.302 1.075l.143.103c0-.327-.106-.47-.092-.743.078.158.173.305.265.456l.061-.047-.01-.313c.133-.01.293-.104.417-.165z"></path><path fill="#fff" d="M71.371 73.206c5.562.296 10.341.735 15.854 1.594l-.028.188c-1.725-.27-4.282-.42-6.07-.582q-5.161-.46-10.31-1.03l.088-.115z"></path><path fill="#d5dadf" d="M64.23 29.586c1.753 1.062 3.379 1.647 5.336 2.174-.094.265.188.716.32.939-.511.406-1.588.029-1.94.438-.987-.714-2.857-2.635-3.715-3.551"></path><path fill="#d5dadf" d="M68.419 31.616c.188.179.273.994.318 1.28-.34-.313-.295-.799-.318-1.28"></path><path fill="#fff" d="M41.128 31.373c.088.382-.086 4.566-.115 5.16q-1.11.506-2.24.971c-.026-.36 1.25-2.996 1.467-3.56.293-.757.589-1.863.888-2.571m12.298 39.268c2.307-.147 4.823.111 6.82 1.398-.185.088-.494.002-.701-.025a59 59 0 0 0-4.083-.675c-.884-.11-1.87-.116-2.726-.346-.092-.025-.077-.039-.123-.117.202-.164.56-.189.813-.235"></path><path fill="#d5dadf" d="M41.316 44.588c1.509.503 1.222.913 2.266 1.895.245.192.873.66 1.069.851-.99.039-1.67.064-2.396-.74l-.127-.19c-.525-.53-.642-1.096-.812-1.816"></path><path fill="#fff" d="M43.582 46.482c.245.192.873.66 1.069.852-.99.038-1.67.063-2.396-.741.263-.074.782-.049 1.073-.047z"></path><path fill="#d5dadf" d="M42.128 46.403c.407-.026.864-.101 1.2.143-.292-.002-.81-.026-1.073.047z"></path><path fill="#fff" d="M38.153 43.943c.641.074 1.855.179 2.383.481.061.516.126 1.03.29 1.524l-1.147-.056c-.178-.155-.462-.389-.609-.556-.404-.409-.662-.886-.917-1.393"></path><path fill="#d5dadf" d="M40.536 44.424c.06.515.126 1.03.29 1.523l-1.147-.056c-.178-.154-.463-.389-.609-.556.4.005 1.048.09 1.327-.102.182-.302.127-.428.14-.81"></path><path fill="#fff" d="M37.789 42.088c.799.238 1.73.709 2.416 1.18l.279.05c.048.355.103.352-.015.64-.219.105-.596-.01-.849-.06-.462-.081-1.117-.064-1.546-.259-.118-.054-.142-.26-.18-.404-.08-.407-.17-.735-.105-1.147"></path><path fill="#d5dadf" d="M37.894 43.234a29 29 0 0 0 1.596.188c.46-.069.296.116.715-.154l.279.05c.049.355.104.352-.015.64-.219.105-.595-.01-.848-.061-.463-.08-1.118-.064-1.547-.258-.118-.054-.142-.261-.18-.405"></path><path fill="#d5dadf" d="m40.205 43.269.278.05c.05.355.104.352-.014.64-.22.105-.596-.01-.849-.061-.081-.118-.083-.144-.119-.277l.162-.094-.174-.104c.461-.069.296.116.716-.154"></path><path fill="#fff" d="m110.208 17.08.243-.008c.549.442.475 3.443.16 4.046l-.078-.181c-.171-1.383-.604-2.552-1.257-3.77.241-.04.675-.064.932-.087"></path><path fill="#d5dadf" d="M71.585 30.868c-.993-.153-3.256-.708-4.078-1.25 1.804.282 2.896.352 4.698.387-.231.214-.65.53-.62.863"></path><path fill="#fff" d="M84.886 23.452c.303.086 3.498 3.223 4.08 3.732-1.103-.148-3.392-2.823-4.08-3.732m23.959 27.288c.698-.26 1.767-.52 2.23-1.03-.053.353-.158.77.29.875l.015.054c-.85 0-1.556.13-2.535.102m-67.41-8.036c.131.177.594 1.62.697 1.925l-.781-.293c-.007-.555-.043-1.094.084-1.632"></path><path fill="#d5dadf" d="M87.225 74.8c.975.113 1.934.18 2.856.53l.046.018c-.975-.106-1.962-.203-2.93-.36zm-17.978-1.566c.64-.151 1.47-.087 2.124-.028l-.466.056-.089.114c-.201.011-1.304-.115-1.569-.142m28.117-60.345c.536-.06 1.056-.171 1.593-.241l-.028.13c-.19.04-.314.045-.456.175-.384.04-.728-.018-1.109-.064M64.26 46.084c-.235-.16-.3-.197-.487-.416.213-.023.365.09.589.187z"></path><path fill="#222629" d="M69.04 43.429c-.228-.063-.433-.088-.587-.254.235-.049.424.031.652.102z"></path><path fill="#bab8ba" fill-opacity=".035" d="M6.963 72.225c.524-.028 1.122-.181 1.275.431.593.468 3.248-.513 3.97-.217-.144.159-1.762.28-2.096.319l.006.104c.583.212 2.687-.2 3.338-.38l.429.046.066.088c-.376.083-1.779.318-2.006.48.294.074 1.112-.106 1.505-.133l.01.118-.335.153.046.109c.337.019.45-.024.778-.114l.061-.058c1.21-.079 3.629-.48 4.785-.039l.04.104c-.806-.029-1.252.158-2.038.36.729.019 1.304-.198 1.97-.212l.44-.02c.097.1.085.05.103.157-.57.082-.804.137-1.354.308.122.075 1.22-.107 1.482-.065.916.147 1.938.57 2.882.49.375.033.509.037.86.164.283.009.628.028.906.019 1.316-.06 4.128.31 5.509.513.496.515 2.294.155 3.048.156l-.522.292c.28.163.863.056 1.215.025.233.002.919-.032 1.058.069l-.267.088c-.384.014-.46.019-.817.15l-.023.044c.481.115 2.348-.081 2.848-.228l.47.085c.075.108.08.088.102.21l-.06.136c.373.122 1.483-.318 1.973-.083-.23.096-.386.141-.624.21.225.157 1.183-.115 1.475-.085 1.21.121 2.248.138 3.452.144l.163-.055c-.17-.112-.297-.174-.475-.263l.444-.02c.32.034.434.046.751.014l-.066.163.035.055c.344.052 2.558-.636 2.873-.793.18-.245 1.351-.72 1.7-.89l.26-.192c.463-.132 1.05-.61 1.485-.82.668-.324 1.676-.56 2.407-.702l.773.014c-.226.109-.787.284-.851.404.712 0 1.394-.105 2.101-.034 1.448.145 2.816.272 4.276.2l.022-.078.425-.135c.576.125 1.158.212 1.671.502-.614.316-4.768.034-5.587-.011-.97-.054-1.766-.393-2.682.029-.21.096-.339-.055-.5-.187-1.698.199-2.232.663-3.762 1.431-.375.189-.762.328-1.156.483-.106.043-.43.417-.435.418-.595.086-1.785.638-2.266.733-1.27.249-2.883.061-4.204.143-.184.011-.534-.165-.672-.21-.251-.084-.843.104-1.115.14-.598.08-.541.2-.952-.212-.083-.084-.39.016-.54.042-.816.14-2.05-.27-2.91-.322-.233-.014-.64.276-.796.236-.927-.244-1.72-.862-2.706-.676-.652.123-1.288-.375-1.954-.42-.565-.037-1.162-.033-1.74-.074-.605-.043-1.212-.202-1.81-.255-.754-.067-1.592-.031-2.346-.107-.98-.099-1.962-.302-2.948-.393-.424-.04-1.34.078-1.69.008-.527-.106-1.41-.498-1.984-.596-.161-.027-.775.24-.993.274-.242.04-.29-.023-.533-.185-.657-.44-2.25-.045-3.012-.45-.006-.003-.25-.23-.25-.23-.734-.067-1.792.106-2.479.057-.517-.037-1.49-.64-2.006-.717l-.06-.007-.05-.093zm9 1.146c.424-.087 1.156-.065 1.507-.262a5 5 0 0 0-.928-.02c-.511.1-1.017.181-1.492.404.19.09.695-.065.913-.122"></path><path fill="#222629" d="M16.543 73.09a5 5 0 0 1 .928.019c-.352.197-1.084.175-1.507.262-.218.057-.724.212-.913.122.475-.223.98-.304 1.492-.403"></path><path fill="#d5dadf" d="M50.924 71.84c.751.149 1.56.254 2.321.365-.426.441-.423.037-.745.455-.73.14-1.739.377-2.407.7-.436.211-1.022.69-1.486.82-.23-.027-1.018-.15-1.185-.09l.167.197-.149.037c.354.1.538.07.908.049-.349.171-1.52.646-1.7.89-.414-.308-.623-.148-.813-.406l.242-.301c1.023-.618 3.849-2.275 4.847-2.716m.773.775c.157-.02.239 0 .35-.118-.149-.134-.228-.171-.44-.155-.038.003-.08.01-.116.016-.218.027-.473.025-.63.197.241.177.467.117.747.074z"></path><path fill="#d5dadf" d="M51.491 72.359c.036-.006.078-.014.115-.017.213-.016.292.021.44.156-.11.116-.192.097-.349.117l-.09.014c-.279.043-.505.103-.746-.074.157-.171.412-.17.63-.196m1.754-.154c1.563.163 3.867.393 5.37.721l-.196.105.054.086c.118.02.229.047.348.049l-.023.078c-1.46.072-2.827-.056-4.275-.2-.707-.072-1.39.033-2.101.033.064-.12.625-.295.85-.404l-.772-.013c.322-.418.32-.014.745-.455M36.938 75.21c1.003-.033 4.958.483 6.118.614l-.445.02c-.223-.004-.216-.04-.373.058.271.129.398.173.686.26-1.204-.006-2.243-.023-3.453-.144-.291-.03-1.25.242-1.475.085.238-.069.395-.114.624-.21-.49-.234-1.6.206-1.973.083l.06-.136a14 14 0 0 0 1.647-.325c-.447-.08-1.725.008-2.218.03-.5.147-2.367.343-2.848.228l.023-.043c.356-.132.433-.136.816-.15.4-.005 1.21-.009 1.572-.098.442-.103.823-.068 1.239-.272"></path><path fill="#222629" d="M0 59.361c1.19-.142 2.611-.186 3.8-.154.75.272 2.621-.14 3.236.198.048.166.044.173.008.347-2.237-.164-4.646.107-7.044-.174z"></path><path fill="#d5dadf" d="M21.161 73.368c.206.021 1.191.108 1.323.157l-.086.004-.044.105.051.121c-.066.152-.13.273-.152.438l.067.061c-.944.08-1.966-.343-2.881-.49-.263-.042-1.36.14-1.483.065.55-.171.784-.226 1.354-.308l.446-.023c.317.25 1.065.158 1.405-.13m-10.997-1.351c.521.055 2.927.314 3.292.466-.65.178-2.755.591-3.338.379l-.006-.104c.334-.04 1.952-.16 2.096-.319-.723-.296-3.377.684-3.97.217l.04-.067.059.001a6 6 0 0 0 1.755-.21c.348-.027.498-.05.838-.127-.136-.118-.55-.14-.765-.17z"></path><path fill="#bab8ba" fill-opacity=".035" d="M7.805 71.758c.764.06 1.593.17 2.36.259v.066l-.263.213c.084.058.09.077.19.084a6 6 0 0 1-1.755.21l-.058-.001-.04.067c-.154-.612-.752-.459-1.276-.431l.013-.079c.226-.2.585-.21.9-.265z"></path><path fill="#d5dadf" d="M43.807 75.839c.225-.23 1.887-1.084 2.27-1.283l-.242.301c.19.257.4.098.813.407-.315.157-2.529.844-2.873.793l-.035-.055zm-21.323-2.315c.553.047 2.475.234 2.963.356-.435.021-1.183.037-1.565.213-.315.144-.326.208-.702.324-.351-.127-.485-.13-.86-.164l-.067-.061c.022-.165.086-.285.152-.438l-.051-.12.044-.106zm11.514 1.336q1.285.1 2.559.296c-.495.033-.855.059-1.345.144-.652.137-1.202-.02-1.876.123-.351.031-.935.138-1.214-.026.279-.027.717-.164 1-.242.284.002.624-.165.876-.296"></path><path fill="#d5dadf" d="M25.447 73.88c.228.023.479.041.704.07-.703.613-1.14.088-2.065.486-.278.01-.623-.01-.906-.018.375-.117.387-.18.702-.325.382-.175 1.13-.191 1.565-.212"></path><path fill="#bab8ba" fill-opacity=".035" d="M13.45 72.962c.499-.113.641-.292 1.202-.342.504.031 1.149.055 1.635.126-.57.099-1.858.226-2.276.425l-.062.057c-.328.09-.44.134-.778.114l-.046-.108.335-.153z"></path><path fill="#d5dadf" d="m13.885 72.528.767.092c-.561.05-.703.23-1.202.343-.393.027-1.211.207-1.505.133.227-.162 1.63-.398 2.005-.48z"></path><path fill="#bab8ba" fill-opacity=".035" d="M36.136 75.546c.493-.022 1.771-.111 2.218-.03-.459.127-1.17.26-1.646.324-.022-.12-.027-.102-.102-.21z"></path><path fill="#d5dadf" d="M19.828 73.234c.475.003.865.068 1.333.134-.34.287-1.088.38-1.405.13l.106-.073z"></path><path fill="#222629" d="m18.836 73.236-.068.148c-.667.014-1.242.23-1.97.213.785-.203 1.232-.39 2.038-.36"></path><path fill="#bab8ba" fill-opacity=".035" d="M33.336 75.422c.673-.142 1.223.015 1.876-.122.196.132.245.178.486.182-.362.09-1.171.093-1.57.097l.266-.088c-.14-.1-.824-.066-1.058-.07"></path><path fill="#bab8ba" fill-opacity=".035" d="m36.557 75.155.381.055c-.416.204-.797.17-1.24.273-.24-.004-.29-.051-.486-.183.49-.085.85-.11 1.345-.145m-17.761-2.023 1.032.103.034.19-.106.073-.446.023c-.018-.107-.006-.057-.103-.157l-.44.02.069-.148z"></path><path fill="#d5dadf" d="M48.349 74.373c-.37.022-.555.051-.908-.049l.148-.036-.166-.197c.166-.061.955.063 1.185.09z"></path><path fill="#bab8ba" fill-opacity=".035" d="M10.165 72.083c.215.03.63.052.765.17-.34.078-.49.1-.838.127-.1-.006-.106-.026-.19-.084z"></path><path fill="#d5dadf" d="M42.923 76.163a4 4 0 0 1-.686-.26c.158-.098.15-.062.373-.059.18.09.306.152.476.264z"></path><path fill="#bab8ba" fill-opacity=".035" d="m58.616 72.927.63.104-.425.135c-.12-.002-.23-.028-.348-.049l-.054-.086zm-25.972 2.179c.138.01.349.02.479.048-.284.078-.722.215-1 .243z"></path></g><defs><linearGradient id="sleep_svg__b" x1="112.693" x2="112.693" y1="75.757" y2="76.169" gradientUnits="userSpaceOnUse"><stop stop-color="#fdfcfc"></stop><stop offset="1" stop-color="#d2d1d2"></stop></linearGradient><linearGradient id="sleep_svg__c" x1="97.206" x2="95.864" y1="63.902" y2="65.094" gradientUnits="userSpaceOnUse"><stop stop-color="#d2d1d2"></stop><stop offset="1" stop-color="#fdfcfc"></stop></linearGradient><linearGradient id="sleep_svg__d" x1="114.187" x2="110.578" y1="42.741" y2="42.882" gradientUnits="userSpaceOnUse"><stop stop-color="#fdfcfc"></stop><stop offset="1" stop-color="#d2d1d2"></stop></linearGradient><linearGradient id="sleep_svg__e" x1="123.132" x2="122.819" y1="54.493" y2="55.229" gradientUnits="userSpaceOnUse"><stop stop-color="#d2d1d2"></stop><stop offset="1" stop-color="#fdfcfc"></stop></linearGradient><linearGradient id="sleep_svg__f" x1="115.793" x2="114.811" y1="48.36" y2="48.357" gradientUnits="userSpaceOnUse"><stop stop-color="#d2d1d2"></stop><stop offset="1" stop-color="#fdfcfc"></stop></linearGradient><linearGradient id="sleep_svg__g" x1="121.257" x2="120.867" y1="51.541" y2="52.052" gradientUnits="userSpaceOnUse"><stop stop-color="#d2d1d2"></stop><stop offset="1" stop-color="#fdfcfc"></stop></linearGradient><linearGradient id="sleep_svg__h" x1="95.942" x2="95.022" y1="66.068" y2="68.182" gradientUnits="userSpaceOnUse"><stop stop-color="#d2d1d2"></stop><stop offset="1" stop-color="#fdfcfc"></stop></linearGradient><linearGradient id="sleep_svg__i" x1="59.751" x2="62.261" y1="64.346" y2="61.507" gradientUnits="userSpaceOnUse"><stop stop-color="#d2d1d2"></stop><stop offset="1" stop-color="#fdfcfc"></stop></linearGradient><linearGradient id="sleep_svg__j" x1="110.614" x2="111.536" y1="49.338" y2="49.26" gradientUnits="userSpaceOnUse"><stop stop-color="#d2d1d2"></stop><stop offset="1" stop-color="#fdfcfc"></stop></linearGradient><clipPath id="sleep_svg__a"><path fill="#fff" d="M0 0h167v80H0z"></path></clipPath></defs></svg>