<svg width="56" height="40" viewBox="0 0 56 40" fill="none" xmlns="http://www.w3.org/2000/svg">
<path d="M28.3046 7.17816C29.8035 5.76281 31.3272 5.20245 33.2575 4.60068C35.7718 3.81602 38.3705 3.33356 40.9989 3.16348C41.6168 3.12018 42.2364 3.12007 42.855 3.09039C43.2659 3.07068 43.676 3.01596 44.0868 3.00194C44.41 2.99094 44.795 3.02021 45.0363 3.26216C45.1577 3.38388 45.2311 3.55575 45.2679 3.72144C45.3374 4.03412 45.3054 4.38094 45.3036 4.70008L45.296 6.06045C45.9984 6.04592 47.1927 5.94503 47.8444 6.18135C48.1418 6.28919 48.3993 6.50452 48.527 6.79796C48.6082 6.98443 48.641 7.18748 48.6492 7.3895C48.6701 7.90764 48.6551 8.43207 48.6551 8.95077L48.6551 11.7386L48.6551 20.3141L48.6562 29.5437C48.6582 31.1096 48.7128 32.6899 48.663 34.2545C48.655 34.5062 48.6398 34.771 48.5421 35.0062C48.3693 35.4218 48.0438 35.6876 47.6365 35.8492C46.8516 36.0238 45.8363 35.9245 45.018 35.9245L36.3302 35.9634L33.5715 35.9664C33.0817 35.9659 32.5726 35.9374 32.0853 35.9769C31.4721 36.0267 31.0031 36.5126 30.451 36.7305C29.9804 36.9162 29.4418 36.9504 28.9408 36.9752C28.1197 37.0159 26.9052 37.049 26.1569 36.7099C25.6683 36.4884 25.2534 36.0077 24.6996 35.9528C24.2521 35.9085 23.7929 35.9197 23.3433 35.9175L21.5888 35.9025L14.5766 35.8911L11.2797 35.8959C10.5814 35.9009 9.82359 35.988 9.13531 35.8527C8.88513 35.8041 8.65362 35.6863 8.46721 35.5125C8.10969 35.1772 8.01638 34.6969 8.00614 34.2281C7.99201 33.5772 8.00875 32.9236 8.01003 32.2723L8.01187 28.5993L8.01116 16.997L8.00849 10.3809L8.00773 8.30401C8.00762 7.94198 7.98536 7.56404 8.01689 7.20401C8.04069 6.93283 8.15534 6.62752 8.35066 6.43317C8.82427 5.96187 9.62638 6.03762 10.2379 6.04392L11.3627 6.05723C11.3645 5.61505 11.3621 5.17282 11.3555 4.73063C11.3519 4.42082 11.3256 4.08843 11.374 3.78204C11.3978 3.6313 11.4412 3.48256 11.5248 3.35342C11.6581 3.14751 11.8223 3.06413 12.0549 3.00926C12.559 2.97717 13.0812 3.07324 13.586 3.09796C14.173 3.12668 14.7595 3.13748 15.3451 3.19009C16.077 3.25592 16.8048 3.37497 17.5322 3.4778C20.1776 3.8518 23.2586 4.38796 25.6969 5.48161C26.6414 5.90521 27.5015 6.53247 28.3046 7.17816ZM13.0001 30.5742C16.6769 30.6948 20.5006 31.1514 23.9759 32.4012C24.7255 32.664 25.4485 32.9975 26.1351 33.3971C26.6111 33.6703 27.8837 34.7607 28.2811 34.7615C28.4345 34.7619 28.5875 34.6841 28.7169 34.6088C28.9161 34.4928 29.0993 34.3325 29.2813 34.1913C29.6876 33.8761 30.1019 33.5431 30.5495 33.2876C31.1773 32.9292 31.8736 32.6695 32.5563 32.4381C35.1104 31.5724 37.9352 31.0501 40.6164 30.806C41.6378 30.713 42.6658 30.715 43.6858 30.6178L43.6812 30.1714L43.6636 4.72045C42.2564 4.72204 40.8503 4.85962 39.455 5.02955C38.4453 5.15255 37.4295 5.276 36.431 5.47173C34.3216 5.88525 31.1108 6.81306 29.5578 8.3752C29.261 8.67366 28.8502 9.28777 28.3939 9.29872C28.088 9.30609 27.819 9.10269 27.6138 8.89473C27.2345 8.51023 26.9054 8.07051 26.4523 7.76535C25.805 7.32951 25.0589 7.03367 24.3332 6.75697C23.1912 6.31253 22.0172 5.95491 20.8213 5.68727C19.47 5.39659 18.0926 5.24248 16.7236 5.06241C16.242 4.99904 15.7745 4.86412 15.2944 4.80275C14.5371 4.70586 13.7641 4.69578 13.0021 4.65785L13.0001 30.5742ZM9.71001 34.1813L18.8697 34.1817L22.1345 34.152C22.6003 34.1484 23.2334 34.19 23.675 34.1498C23.6674 34.1462 23.6598 34.1426 23.6521 34.1391C23.2129 33.9405 22.7044 33.8184 22.2417 33.6843C19.8275 32.9847 17.3223 32.6068 14.8204 32.4024C14.231 32.3587 13.641 32.3224 13.0506 32.2935C12.7043 32.2747 12.3349 32.278 11.9955 32.2049C11.7346 32.1487 11.4998 31.9985 11.4012 31.7415C11.2508 31.3494 11.3361 29.1064 11.3368 28.542L11.3401 23.9771L11.34 7.7678L9.70157 7.76596L9.71001 34.1813ZM45.2994 7.77528L45.3028 23.5702L45.3032 28.8454C45.3028 29.6707 45.3524 30.5897 45.297 31.3998C45.2818 31.6213 45.2317 31.8327 45.0731 31.9977C44.8889 32.1893 44.6533 32.2211 44.4026 32.2542C43.9412 32.3152 43.47 32.3223 43.0053 32.3433C42.5031 32.3649 42.0014 32.3977 41.5006 32.4418C39.1063 32.6426 36.7364 33.0689 34.4223 33.7151C33.9411 33.851 33.4099 33.9668 32.9539 34.1695C33.5269 34.1227 34.1165 34.1499 34.6916 34.1509L46.9763 34.1542L46.9687 16.5977L46.9678 10.6194C46.9758 9.67052 46.9771 8.72162 46.9717 7.77277C46.4143 7.76883 45.8569 7.76965 45.2994 7.77528Z" fill="#5477B2"/>
<path d="M32.6987 8.79346C32.8199 8.78481 32.9457 8.78236 33.0647 8.8102C33.2896 8.86272 33.4713 9.00224 33.5897 9.1993C34.0399 9.94915 33.7991 11.62 33.5803 12.4649C33.0553 14.4923 31.5017 15.683 29.7883 16.6898C30.9536 17.4103 32.1171 18.2354 32.747 19.4965C33.2386 20.4806 33.3346 21.8081 32.9856 22.8516C32.6526 23.8471 31.878 24.765 31.0166 25.3503C30.6942 25.5693 30.3498 25.7415 30.0017 25.9145C31.1948 26.7477 32.7758 27.8295 33.2283 29.2829C33.3309 29.6122 33.409 30.0665 33.2327 30.3819C33.1538 30.5229 33.0211 30.6132 32.8674 30.6561C32.6371 30.7203 32.3511 30.7013 32.1419 30.58C31.7627 30.36 31.6571 29.7833 31.5469 29.3929L27.7425 29.3904C26.8547 29.3898 25.9648 29.3772 25.0776 29.4183C24.9546 29.774 24.8497 30.3206 24.5419 30.5655C24.3665 30.7051 24.1437 30.7278 23.928 30.6975C23.6898 30.6642 23.5386 30.5661 23.3942 30.3767C23.2408 30.124 23.2662 29.8041 23.3349 29.5282C23.7528 27.8494 25.2699 26.7852 26.6737 25.9493C25.6003 25.3095 24.6548 24.5531 23.9763 23.4857C23.384 22.554 23.317 21.462 23.5558 20.4008C23.9492 18.6528 25.4127 17.615 26.8361 16.714C26.1159 16.2251 25.4127 15.7789 24.7819 15.1719C23.5901 14.0251 22.8479 12.5447 22.8228 10.8738C22.8148 10.3422 22.8247 9.43782 23.2334 9.03956C23.3762 8.90044 23.5742 8.84971 23.7694 8.86256C23.9994 8.87776 24.2416 8.97824 24.3896 9.15989C24.6829 9.52002 24.462 10.2271 24.4091 10.6545C25.6546 10.6454 26.9001 10.6448 28.1456 10.653C28.6684 10.6607 29.1894 10.6989 29.712 10.7094C30.5657 10.7291 31.4199 10.711 32.272 10.6551C32.2762 10.1846 31.9716 9.55498 32.2126 9.12857C32.3224 8.93432 32.4937 8.85555 32.6987 8.79346ZM31.3328 13.1148C31.3986 13.1119 31.4226 13.122 31.4698 13.0719C31.7261 12.8 31.9498 12.1682 32.0584 11.8095C30.8091 11.7871 29.5596 11.7783 28.3102 11.783C27.3146 11.7805 26.3184 11.7634 25.323 11.7702L24.5502 11.7805C24.7168 12.2476 24.9146 12.6805 25.1602 13.1118C26.0425 13.1127 26.9261 13.1042 27.8082 13.1186C28.28 13.1263 28.7507 13.1608 29.2227 13.1612C29.927 13.1619 30.629 13.124 31.3328 13.1148ZM25.0774 21.6567C26.068 21.6445 27.0565 21.6275 28.0467 21.6648C29.2045 21.7379 30.3709 21.6781 31.5295 21.6485C31.5425 21.1938 31.4956 20.8444 31.3684 20.4083C30.4398 20.4079 29.4951 20.3713 28.5684 20.422L26.6689 20.4443C26.2073 20.4531 25.7249 20.4886 25.2654 20.4343C25.1574 20.8428 25.0779 21.2317 25.0774 21.6567ZM28.3945 25.0655C29.0091 24.7125 29.6386 24.3681 30.2321 23.9805C30.6641 23.6575 30.9604 23.2902 31.2491 22.8367C29.3126 22.8528 27.3761 22.8535 25.4397 22.8389C26.168 23.9441 27.2329 24.516 28.3945 25.0655ZM28.2804 15.7127C28.7232 15.4375 29.1724 15.1692 29.6083 14.8832C29.8935 14.693 30.1876 14.507 30.4436 14.2776C29.048 14.2662 27.6494 14.3062 26.2549 14.2658C26.746 14.857 27.6252 15.3126 28.2804 15.7127ZM30.5383 28.2466C29.8976 27.7027 29.1672 27.2592 28.4141 26.8869C27.6776 27.2895 26.9293 27.6786 26.2648 28.1959C26.9881 28.1801 27.6953 28.1721 28.4178 28.2181C29.1199 28.2907 29.8339 28.2229 30.5383 28.2466ZM28.282 17.6649C27.4628 18.1326 26.6432 18.6085 25.9563 19.2631C26.7675 19.2621 27.5787 19.2695 28.3897 19.2854C29.1349 19.2853 29.88 19.2777 30.625 19.2625C30.4641 19.0935 30.2987 18.941 30.1133 18.7991C29.8966 18.633 28.4955 17.6903 28.3056 17.6651C28.2978 17.664 28.2899 17.665 28.282 17.6649Z" fill="#5477B2"/>
</svg>
