<svg width="14" height="17" viewBox="0 0 14 17" fill="none" xmlns="http://www.w3.org/2000/svg">
<path d="M0 0H1.75V1.7C1.75 2.924 2.345 3.9185 3.395 4.913C4.1475 5.6185 5.15375 6.2985 6.20375 6.97L4.6025 7.9815C3.73625 7.412 2.89625 6.8 2.1875 6.1285C0.93625 4.947 0 3.485 0 1.7V0ZM12.25 0H14V1.7C14 3.485 13.0638 4.947 11.8125 6.1285C10.5787 7.3015 9.00375 8.2705 7.4725 9.214C5.94125 10.166 4.45375 11.0925 3.395 12.087C2.345 13.0815 1.75 14.076 1.75 15.3V17H0V15.3C0 13.515 0.93625 12.053 2.1875 10.8715C3.42125 9.6985 4.99625 8.7295 6.5275 7.786C8.05875 6.834 9.54625 5.9075 10.605 4.913C11.655 3.9185 12.25 2.924 12.25 1.7V0ZM9.3975 9.0185C10.2638 9.588 11.1038 10.2 11.8125 10.8715C13.0638 12.053 14 13.515 14 15.3V17H12.25V15.3C12.25 14.076 11.655 13.0815 10.605 12.087C9.8525 11.3815 8.84625 10.7015 7.79625 10.03L9.3975 9.0185ZM2.625 0.85H11.375V1.7L11.3225 2.125H2.6775L2.625 1.7V0.85ZM3.22 3.4H10.78C10.57 3.689 10.325 3.9865 9.9925 4.301L9.54625 4.675H4.43625L4.0075 4.301C3.675 3.9865 3.43 3.689 3.22 3.4ZM4.45375 12.325H9.56375L9.9925 12.699C10.325 13.0135 10.57 13.311 10.78 13.6H3.22C3.43 13.311 3.675 13.0135 4.0075 12.699L4.45375 12.325ZM2.6775 14.875H11.3225L11.375 15.3V16.15H2.625V15.3L2.6775 14.875Z" fill="#5477B2"/>
</svg>
